<?xml version="1.0" encoding="UTF-8"?>
<svg id="Layer_1" data-name="Layer 1" xmlns="http://www.w3.org/2000/svg" viewBox="0 0 451.48 447.02">
  <defs>
    <style>
      .cls-1 {
        fill: #999;
        stroke-width: 0px;
      }
    </style>
  </defs>
  <path class="cls-1" d="M222.57,231.96c13.04,0,26.08-.12,39.11.06,5.82.08,11.71.27,17.42,1.28,7.76,1.36,12.53,6.59,14.96,13.97.29.89.21,1.89.32,2.84.13,1.1.34,2.2.43,3.31.1,1.1.18,2.22.12,3.32-.15,2.79-.35,5.58-.59,8.37-.41,4.77-.88,9.53-1.31,14.3-.24,2.7-.37,5.42-.69,8.11-.71,5.95-1.37,11.91-2.29,17.82-1.12,7.25-2.52,14.46-3.74,21.7-1.38,8.2-3.52,16.22-5.8,24.19-1.38,4.84-3.09,9.6-6.13,13.72-3.25,4.4-7.48,7.23-12.92,8.39-4.24.9-8.5,1.36-12.81,1.6-2.23.12-4.46.47-6.69.45-2.31-.02-4.63-.25-6.91-.6-2.45-.37-4.68-3.03-4.72-5.95-.08-6.16-.05-12.32.17-18.47.15-4.29,2.33-6.28,7.43-6.74,2.86-.26,5.72-.5,8.56-.86,2.46-.31,4.07-1.79,4.87-4.08.52-1.5,1.03-3.03,1.28-4.59.36-2.2.44-4.45.7-6.67.3-2.53.71-5.04,1.02-7.57.84-6.89,1.39-13.8,1.99-20.72.53-6.14.85-12.28.94-18.43.02-1.6.02-3.2-.09-4.8-.21-2.89-1.86-4.98-4.74-5.56-2.09-.42-4.28-.52-6.43-.52-17.03,0-34.07.05-51.1.09-2.01,0-3.95.18-5.77,1.25-2.15,1.27-3.15,3.16-3.25,5.52-.1,2.55-.04,5.12.03,7.67.05,1.84.22,3.67.35,5.5.36,4.77.64,9.55,1.11,14.31.61,6.11,1.33,12.22,2.12,18.31.59,4.51,1.29,9.01,2.09,13.49.67,3.7,2.65,6.41,6.63,6.88,3.48.41,7,.48,10.5.8,1.65.15,3.33.36,4.91.83,2.13.64,3.12,2.36,3.43,4.49.13.87.24,1.75.27,2.62.17,4.95.36,9.9.43,14.86.02,1.25-.31,2.52-.62,3.75-.73,2.93-2.82,4.33-5.68,4.7-4.2.54-8.4.63-12.63.12-3.88-.47-7.81-.53-11.69-1.01-3.8-.47-7.53-1.37-10.88-3.39-3.57-2.15-6.55-4.97-8.26-8.75-2-4.43-3.8-8.98-5.23-13.62-1.68-5.48-2.94-11.09-4.23-16.68-.79-3.41-1.26-6.89-1.92-10.33-.6-3.13-1.33-6.24-1.86-9.39-.7-4.16-1.27-8.35-1.9-12.53-.34-2.28-.77-4.56-1.03-6.85-.49-4.28-.89-8.56-1.31-12.84-.36-3.66-.85-7.31-1-10.97-.25-5.99-.86-12.04-.27-17.96,1.05-10.64,8.27-17.07,18.59-17.96,6.36-.55,12.77-.69,19.16-.75,11.84-.11,23.68-.03,35.51-.03h.04Z"/>
  <path class="cls-1" d="M222.13,206.05c-15.93,0-29.93-.03-43.93.02-4.58.02-9.09-.39-13.56-1.35-7.25-1.56-12.57-7.55-13.19-14.89-.37-4.32-.08-8.61.44-12.9.58-4.74,1.03-9.5,1.68-14.24.59-4.34,1.4-8.65,2.06-12.98.59-3.85,1.06-7.73,1.7-11.57.62-3.76,1.39-7.5,2.07-11.25.21-1.17.29-2.38.53-3.54.84-4.14,1.71-8.27,2.6-12.39.9-4.12,1.73-8.27,2.8-12.34,1.22-4.63,2.54-9.23,4.07-13.76,1.04-3.08,2.24-6.16,3.84-8.98,2.42-4.25,6.49-6.39,11.24-6.78,7.96-.65,15.94-1.01,23.92-1.41,1.41-.07,2.91.03,4.26.44,3.77,1.14,5.16,3.09,5.26,7.05.05,2.24,0,4.48,0,6.72,0,3.12,0,6.24-.04,9.36-.06,3.74-1.29,5.52-4.99,6.17-3.04.54-6.2.43-9.29.69-1.42.12-2.87.29-4.22.71-2.33.71-3.68,2.31-4.02,4.83-.65,4.91-1.46,9.79-2.16,14.69-.56,3.94.25,5.52,4.84,5.5,16-.08,32,.01,47.99-.07,2.96-.02,5.33,1.49,6.14,4,.26.82.35,1.73.35,2.59.03,5.76-.16,11.53.07,17.28.17,4.28-3.28,6.71-6.77,6.66-9.12-.14-18.24-.13-27.36-.14-8.32,0-16.64.03-24.96.09-4.24.03-6.29,2.07-6.41,6.3-.03,1.04-.02,2.09.12,3.11.29,2.14,1.56,3.5,3.69,3.82,1.57.24,3.18.36,4.77.36,14.72-.04,29.43-.15,44.15-.18,4.24,0,8.47.21,12.71.25,1.1,0,2.25-.13,3.3-.46,1.85-.58,3.15-1.84,3.65-3.77.24-.92.42-1.87.6-2.81.75-3.94,3.47-6.35,7.47-6.41,3.92-.06,7.85-.13,11.76.1,4.82.28,8.65,2.94,9.27,8.01.54,4.43,1.01,8.87,1.37,13.32.3,3.66.56,7.34.52,11.01-.04,4.31-1.24,8.27-4.01,11.78-3.39,4.28-7.89,6.03-13.07,6.55-17.71,1.77-35.47.13-51.26.83v-.02Z"/>
  <path class="cls-1" d="M336.03,145.41c.15-.82.44-1.64.42-2.46-.07-3.59-.23-7.18-.35-10.78-.07-1.92-.2-3.84-.2-5.75.03-6.25-.54-12.45-1.31-18.64-.64-5.14-1.1-10.3-1.73-15.45-.25-2.05-.74-4.07-1.1-6.11-.11-.63-.18-1.26-.25-1.9-.31-2.89,1.25-4.79,4.4-4.6,4.66.28,8.83,1.66,11.73,5.85,5.79,8.36,10.92,17.09,15.72,26.04,3.36,6.26,6.81,12.48,10.06,18.8,5.71,11.07,11.29,22.21,16.95,33.31.26.52.72.93,1.09,1.4.17-.06.33-.11.5-.17-.11-.97-.11-1.98-.36-2.92-2.16-8.09-4.33-16.19-7.47-23.98-2.36-5.85-4.35-11.86-6.99-17.57-3.86-8.33-8.16-16.44-12.26-24.66-.85-1.71-1.81-3.39-2.41-5.19-.9-2.69.53-4.45,3.38-4.27,3.42.22,6.44,1.74,9.47,3.19,4.22,2.01,7.17,5.38,9.43,9.29,3.72,6.42,7.34,12.92,10.68,19.55,2.73,5.41,5.13,11,7.41,16.61,2.1,5.17,4.02,10.42,5.68,15.75,2.04,6.54,3.85,13.16,5.52,19.81,1.67,6.65,3.11,13.36,3.93,20.17.44,3.64.71,7.33.15,10.98-.71,4.6-2.99,8.09-7.67,9.44-1.42.41-3.01.26-4.52.34-4.25.22-8.4-.69-12.57-1.27-5.29-.74-8.92-3.86-11.17-8.44-1.93-3.93-3.5-8.05-4.99-12.17-4.03-11.1-7.95-22.24-12.73-33.05-.52-1.17-.42-2.73-1.92-3.5-.95.89-.55,1.99-.56,2.94-.04,9.44-.04,18.88-.05,28.31,0,4.81-.31,9.58-1.38,14.28-1.05,4.57-3.67,8.05-9.58,9.04-3.9.65-7.75.93-11.66.05-1.93-.43-3.97-.33-5.93-.68-8.7-1.53-13.67-7.21-16.13-15.23-1.98-6.47-3.52-13.08-5.21-19.63-2.34-9.04-4.53-18.11-6.98-27.11-1.95-7.15-4.07-14.27-6.35-21.32-2.63-8.12-5.44-16.18-8.32-24.21-1.99-5.55-4.27-11.01-6.35-16.53-.62-1.63-1.16-3.33-1.47-5.04-.56-3.14,1.46-5.66,4.64-5.95,1.11-.1,2.25-.13,3.35,0,3.08.39,6.17.77,9.22,1.37,3.41.67,5.9,2.68,7.47,5.82,2.29,4.57,4.78,9.04,6.88,13.7,2.83,6.26,5.49,12.6,8,18.99,4.13,10.47,8.09,21.01,12.13,31.51.28.72.7,1.39,1.06,2.08.23,0,.46-.02.69-.03h.01Z"/>
  <path class="cls-1" d="M112.23,290.16c1.29.66,2.03,1.1,2.81,1.43,7.54,3.22,13.21,8.45,16.37,16.02,2.09,5,3.67,10.22,5.34,15.38,2.56,7.89,5.02,15.82,7.49,23.74,1.31,4.19,2.64,8.37,3.82,12.6,1,3.59-.83,7.42-4.11,9.01-.49.24-1.06.45-1.59.45-3.83,0-7.67.4-11.45-.65-1.37-.38-2.84-.4-4.26-.62-3.53-.54-7.08-1.02-10.59-1.69-3.2-.6-6.35-1.43-9.54-2.13-2.57-.56-5.17-.98-7.72-1.61-4.48-1.11-8.95-2.26-13.38-3.55-2.74-.8-5.46-1.74-8.08-2.87-3.69-1.6-6.35-4.52-8.72-7.67-7.03-9.38-12.31-19.73-17.07-30.41-3.22-7.22-6.05-14.58-8.63-22.03-1.33-3.83-2.24-7.81-3.28-11.74-.93-3.54-1.85-7.08-2.65-10.65-1.67-7.55-2.52-15.23-3.36-22.9-.35-3.22.26-6.4,1.47-9.39,1.8-4.44,5.25-7.03,9.93-7.64,3.71-.48,7.48-.66,11.23-.71,11.59-.14,23.19-.18,34.79-.18,4.95,0,9.92.02,14.86.35,7.29.49,12.52,4.33,16.03,10.64,1.49,2.68,2.24,5.6,3.02,8.55,1.39,5.25,1.48,10.6,1.59,15.93.08,3.64-.06,7.29-1.42,10.85-1.55,4.04-4.19,6.91-7.88,8.96-1.44.8-2.95,1.48-5.02,2.51v.02ZM80.27,311.55l-.02.12c-1.68,0-3.36-.08-5.03.02-1.71.1-2.66,1.08-2.63,2.78.02,1.1.2,2.25.6,3.27,1.48,3.72,3.32,7.25,5.61,10.56,1.25,1.8,2.97,2.9,5.06,3.35,4.52.96,9.05,1.89,13.59,2.74,2.49.47,5.02.76,7.53,1.11,3.27.46,4.31-2.38,3.47-4.61-.8-2.08-1.32-4.28-2.15-6.34-1.1-2.73-2.24-5.46-3.62-8.05-1.02-1.92-2.87-3.05-5.04-3.28-5.78-.62-11.58-1.12-17.37-1.66h0ZM71.92,264.46v.19h-9.11c-3.25.11-5.07,2.38-4.44,5.6.35,1.8.68,3.61,1.14,5.38.37,1.45.86,2.89,1.41,4.29.63,1.61,1.88,2.54,3.59,2.82.87.15,1.73.35,2.6.37,6.3.18,12.61.38,18.91.46,3.4.04,5.93-2.37,5.99-5.8.04-2.29-.17-4.62-.57-6.88-.64-3.56-2.96-5.53-6.62-5.78-4.3-.29-8.6-.45-12.9-.67v.02Z"/>
  <path class="cls-1" d="M306.46,369.86c-1.95-.34-3.93-.57-5.85-1.05-2.85-.71-4.43-2.98-4.61-5.94-.16-2.47.55-4.74,1.3-7,2-6.04,4.18-12.02,6.1-18.09,1.25-3.95,2.23-7.98,3.25-12,1.2-4.71,2.37-9.42,3.47-14.16.63-2.72,1.12-5.47,1.65-8.21.78-4.06,1.55-8.12,2.28-12.19.24-1.33.35-2.69.52-4.03.56-4.66,1.09-9.33,1.7-13.99.68-5.21,1.42-10.41,2.16-15.62.3-2.12.6-4.25,1.06-6.34,1.54-6.98,4.69-12.91,11.35-16.31,2.56-1.31,5.28-2.25,8.23-2.26,15.51-.08,31.02-.21,46.53-.25,6.23,0,12.47.15,18.7.3,2.55.06,5.08.3,7.49,1.35,4.68,2.04,7.11,5.65,8.01,10.56.83,4.57.09,9.09-.47,13.58-.64,5.14-1.62,10.25-2.73,15.31-.96,4.35-2.22,8.65-3.53,12.91-1.74,5.71-3.47,11.44-5.54,17.04-1.82,4.93-3.97,9.75-6.19,14.53-2.21,4.77-4.49,9.53-7.08,14.1-2.31,4.09-4.99,7.98-7.68,11.84-1.63,2.35-3.53,4.52-5.4,6.7-3.06,3.56-6.99,5.78-11.45,7.07-3.66,1.06-7.34,2.09-11.05,2.96-4.65,1.09-9.33,2.02-14.01,2.98-4.28.88-8.56,1.82-12.86,2.56-4.15.71-8.35,1.16-12.52,1.76-2.75.4-5.49.91-8.25,1.3-1.5.21-3.02.27-4.53.4-.02.06-.04.13-.06.19h0ZM380.54,264.66v-.13c-5.75.22-11.49.44-17.24.65-.88.03-1.77-.05-2.64.08-5.42.79-8.26,1.77-9.67,7.88-.71,3.11-1.25,6.25-1.87,9.39-.49,2.51-.97,5.01-1.45,7.52-.69,3.6-1.28,7.23-2.08,10.81-.99,4.43-2.08,8.85-3.26,13.24-1.15,4.31-2.47,8.58-3.7,12.86-.53,1.84-1.21,3.65-1.51,5.53-.39,2.47.52,3.43,3,3.48,1.27.03,2.56-.08,3.82-.26,3.78-.53,7.55-1.12,11.33-1.67.79-.11,1.6-.07,2.38-.23,3.51-.71,7.03-1.42,10.51-2.24,2.42-.57,4.82-1.35,6.44-3.39,1.04-1.3,1.97-2.73,2.73-4.21,1.54-2.97,2.87-6.04,4.39-9.02,3.05-5.99,5.13-12.36,7.25-18.7,1.72-5.12,3-10.4,4.3-15.66.76-3.08,1.35-6.23,1.72-9.38.47-4.05-1.7-6.43-6.3-6.54-2.72-.06-5.44-.01-8.15-.01h0Z"/>
  <path class="cls-1" d="M214.54,17.39c.84,1.02,1.91,1.91,2.4,3.05.49,1.12.43,2.5.57,3.77.76,6.87.58,13.74-.49,20.55-.56,3.55-3.13,5.65-7.36,6.05-4.85.46-9.74.45-14.6.78-4.05.27-8.1.72-12.15,1.1-.88.08-1.75.19-2.62.29-3.56.39-7.12.73-10.67,1.17-4.59.56-9.17,1.12-13.74,1.81-3.7.56-7.37,1.3-11.06,1.98-2.03.37-4.05.83-6.09,1.15-.94.15-1.93.17-2.86.02-1.9-.32-2.67-1.91-1.95-3.72,1.27-3.2,3.56-5.64,5.91-8.04,1.04-1.06,2.07-2.12,3.13-3.22-1.09-1.14-2.14-.75-3.12-.57-5.4,1-9.83,3.66-13.31,7.9-2.38,2.9-4.75,5.81-7.17,8.67-2.48,2.94-5.52,4.98-9.31,5.95-3.78.96-7.51,2.1-11.25,3.18-1.14.33-2.22.48-3.06-.58-.89-1.13-.66-2.32.12-3.32,1.23-1.56,2.54-3.06,3.96-4.46,4.43-4.36,8.87-8.72,13.41-12.96,5.17-4.84,10.93-8.82,17.71-11.12,5.35-1.82,10.75-3.48,16.08-5.35,1.93-.68,3.89-1.54,5.54-2.73,3.16-2.26,6.1-4.81,9.31-7.38-1.14-.93-2.15-.65-3.07-.35-3.18,1.03-6.32,2.16-9.49,3.2-2.19.71-4.44,1.23-6.6,1.99-3.14,1.11-6.26,2.29-9.32,3.58-2.78,1.17-5.59,2.34-8.19,3.86-4.06,2.38-8.09,4.84-11.86,7.64-9.37,6.95-18.11,14.66-26.22,23.05-2.72,2.81-5.19,5.86-7.71,8.84-3.71,4.4-7.91,8.04-13.47,10-5.26,1.86-10.42,4.02-15.63,6.03-.59.23-1.2.45-1.83.53-1.89.23-2.73-.84-1.96-2.61.34-.77.99-1.43,1.57-2.07,1.01-1.12,2.16-2.1,2.44-3.75.09-.52.78-.93,1.19-1.4,1.25-1.44,2.51-2.86,3.74-4.32.72-.85,1.32-1.8,2.08-2.61,3.67-3.88,7.27-7.83,11.11-11.53,3.32-3.21,6.9-6.14,10.41-9.16,6.67-5.72,13.71-10.96,21.06-15.75,7.36-4.79,14.96-9.18,22.81-13.14,7.57-3.82,15.44-6.92,23.32-9.96,5.49-2.12,11.12-3.93,16.78-5.59,4.5-1.32,9.15-2.13,13.7-3.27,4.5-1.13,9.07-1.74,13.64-2.44,4.35-.67,8.68-1.17,13.07-1.35,3.02-.13,6.03-.65,9.05-.78,1.13-.05,2.32.4,3.42.79,1.97.68,2.9,2.21,2.94,4.23.04,2.32.02,4.64-.11,6.95-.14,2.32-1.05,4.18-3.52,4.88-.22.06-.41.23-.61.37-.05.04-.05.14-.07.17h0ZM163.22,36.13c.11.17.21.35.32.52,1,0,2.02.13,3-.02,4.24-.66,8.45-1.48,12.69-2.07,2.6-.37,5.24-.44,7.86-.63,2.08-.15,3.71-1.04,4.51-3.01,1.08-2.64,2.18-5.3,3.01-8.03.45-1.48,1.03-2.61,2.41-3.34.38-.2.6-.72,1.13-1.39-.85,0-1.23-.03-1.61,0-3.88.31-7.76.41-11.63,1.06-2.95.49-5.57,1.34-7.77,3.28-2.45,2.16-4.79,4.44-7.17,6.67-1.74,1.64-3.5,3.26-5.2,4.94-.59.59-1.03,1.33-1.55,2.01h0Z"/>
  <path class="cls-1" d="M162.09,427.91c-1.08-1.29-1.77-2.25-2.61-3.07-1.88-1.82-3.69-3.79-5.82-5.29-2.05-1.44-4.4-2.53-6.73-3.5-5.73-2.38-11.63-4.37-17.25-6.96-4.4-2.02-8.6-4.53-12.67-7.17-2.59-1.68-4.88-3.87-7.11-6.03-3.66-3.55-7.23-7.2-10.7-10.94-1.25-1.35-2.59-2.81-2.48-4.93.1-1.77,1.53-2.88,3.26-2.44,3.62.92,7.25,1.83,10.86,2.8,4.88,1.31,8.75,4.01,11.67,8.21,2.23,3.2,4.68,6.25,7.22,9.22,2.21,2.58,5.06,4.38,8.24,5.6,1.19.46,2.41.87,3.64,1.2.84.23,1.72.39,2.59.39.92,0,1.26-.72.69-1.47-.52-.7-1.17-1.31-1.82-1.9-2.54-2.35-4.66-5.03-6.26-8.1-1.61-3.08-.23-5.62,3.28-5.84,1.89-.12,3.82.11,5.72.35,2.53.32,5.09.62,7.54,1.27,4.89,1.29,9.96,1.18,14.91,2.08,4.3.78,8.73.84,13.12,1.14,4.22.28,8.5.13,12.66.77,4.54.69,9.08.52,13.62.77,1.35.07,2.75.16,4.03.54,3.81,1.13,5.69,2.59,6.15,7.28.53,5.4.63,10.85.58,16.28-.03,3.05-.47,4.61-4.67,5.55-4.34.96-8.55.35-12.78-.44-.47-.09-.93-.31-1.39-.32-2.51-.07-3.85-1.68-4.9-3.66-.63-1.2-1.14-2.46-1.77-3.66-.82-1.59-2.05-2.51-3.95-2.66-5.25-.42-10.48-.98-15.72-1.49-2.22-.22-4.44-.46-6.66-.68-.4-.04-.85-.18-1.18-.04-.69.29-1.58.6-1.9,1.18-.23.41.16,1.41.57,1.89,1.25,1.45,2.6,2.81,3.98,4.14,3.38,3.27,6.82,6.48,10.18,9.76,1.87,1.82,4.1,2.57,6.64,2.84,5.13.55,10.25,1.29,15.39,1.78,3.71.35,7.45.4,11.17.65,1.26.08,2.59.12,3.76.55,2.18.8,3.56,2.45,3.64,4.86.06,1.67.06,3.37-.2,5.01-.36,2.27-1.41,3.21-3.67,3.44-1.74.17-3.51.18-5.25.08-4.62-.26-9.26-.44-13.86-.97-4.26-.49-8.49-1.32-12.71-2.11-5.25-.99-10.49-2.01-15.7-3.17-2.87-.64-5.68-1.55-8.49-2.42-4.48-1.39-8.96-2.75-13.38-4.3-5.32-1.88-10.58-3.92-15.62-6.5-4.32-2.21-8.8-4.13-13.07-6.43-4.41-2.37-8.65-5.05-12.97-7.6-4.61-2.72-8.89-5.92-13.24-9.03-3.95-2.82-7.8-5.72-11.42-8.96-2.65-2.37-5.42-4.62-8.09-6.97-2.02-1.78-4.11-3.51-5.9-5.5-1.97-2.19-3.86-4.41-6.21-6.26-1.2-.94-1.97-2.42-2.97-3.63-1.67-2.01-3.42-3.96-5.05-6-1.19-1.49-2.31-3.04-3.31-4.66-.37-.6-.54-1.52-.4-2.2.22-1.02,1.27-.81,2.02-.75,1.03.08,2.08.22,3.05.52,5.56,1.73,11.12,3.45,16.63,5.33,3.08,1.05,5.61,3.04,7.63,5.6,5.69,7.24,12.09,13.85,18.65,20.28,4.79,4.69,10,8.92,15.54,12.72,3.81,2.62,7.59,5.29,11.47,7.8,2.14,1.38,4.49,2.42,6.67,3.74,5.29,3.2,11.05,5.33,16.75,7.61,1.62.65,3.32,1.08,4.99,1.61.3.1.66.11.91.29,2.77,1.97,6.24,1.71,9.24,2.93.19.08.44.01,1.24.01l-.02-.02Z"/>
  <path class="cls-1" d="M301.32,405.5c.8.23,1.11.44,1.37.39,7.14-1.37,13.04-4.72,17.71-10.43,2.97-3.63,5.41-7.76,9.15-10.72,1.42-1.12,2.97-2.24,4.65-2.82,2.93-1.01,6-1.61,9.01-2.38,1.47-.38,2.92-.84,4.4-1.11,1.24-.23,2.54-.37,3.8-.29,1.86.12,2.6,1.45,1.97,3.17-.61,1.67-1.38,3.21-2.85,4.33-.63.48-1.07,1.18-1.64,1.74-3.33,3.31-6.57,6.72-10.05,9.88-4.2,3.81-8.78,7.14-13.83,9.8-5.66,2.99-11.49,5.51-17.59,7.51-5.6,1.84-11.07,4.11-15.27,8.58-1.23,1.31-2.65,2.46-4.05,3.75,1.12,1.21,2.22.75,3.1.49,4.71-1.43,9.47-2.77,14.07-4.5,6.1-2.3,12.28-4.45,17.88-7.92,2.84-1.76,5.85-3.26,8.71-5,6.01-3.65,11.51-8.03,16.83-12.6,4.18-3.58,8.38-7.19,12.22-11.12,4.85-4.96,9.41-10.22,13.97-15.45,2.33-2.67,5.1-4.59,8.43-5.66,4.71-1.51,9.46-2.89,14.18-4.36,1.14-.35,2.22-.95,3.37-1.17.79-.15,1.89-.1,2.46.35.86.68.3,1.77-.02,2.67-.05.15-.1.32-.2.43-1.93,2.2-3.02,5.03-5.29,6.99-.76.65-1.25,1.62-1.87,2.43-.33.44-.6.98-1.03,1.29-1.38,1.01-2.28,2.39-3.36,3.68-1.92,2.3-4.25,4.27-6.42,6.36-.69.66-1.5,1.22-2.11,1.95-2.34,2.75-4.97,5.13-8,7.1-1.5.97-2.74,2.34-4.07,3.56-3.44,3.12-7.14,5.87-11.03,8.42-4.79,3.15-9.42,6.55-14.11,9.84-.26.18-.5.4-.78.55-1.95,1.06-3.91,2.11-5.87,3.14-4.51,2.38-8.96,4.9-13.56,7.09-4.81,2.29-9.79,4.2-14.65,6.37-5.04,2.25-10.32,3.76-15.62,5.24-3.82,1.06-7.57,2.37-11.4,3.4-2.76.75-5.59,1.23-8.39,1.83-2.94.64-5.88,1.31-8.83,1.91-1.4.28-2.83.47-4.25.63-5.55.62-11.11,1.13-16.64,1.82-2.95.37-5.87.41-8.83.25-3.73-.2-5.29-1.77-5.35-5.55-.02-1.04-.04-2.08,0-3.12.09-2.41,1.54-4.41,3.91-4.77,2.75-.42,5.56-.44,8.35-.62.47-.03.96.12,1.43.07,3.64-.4,7.27-.84,10.91-1.25,1.03-.12,2.08-.11,3.1-.26,2.44-.34,4.97-.44,7.29-1.17,2.01-.63,3.97-1.77,5.62-3.1,2.91-2.35,5.61-4.97,8.31-7.56,2.02-1.93,3.92-3.98,5.84-6.02,1.35-1.43.99-2.62-.93-3-.69-.14-1.44-.08-2.15-.03-4.14.34-8.28.66-12.41,1.07-4.2.42-8.4.84-12.57,1.47-1.07.16-2.22.92-2.98,1.74-1.02,1.09-1.76,2.46-2.5,3.78-2.25,4.03-5.62,5.92-10.25,5.51-2.1-.18-4.21-.26-6.29-.57-2.25-.34-3.9-2.12-4-4.42-.1-2.47.02-4.95.15-7.42.14-2.71.42-5.4.62-8.11.05-.64,0-1.29.09-1.92.65-4.32,2.68-6.08,6.66-7.17.84-.23,1.73-.33,2.61-.39,4.86-.34,9.72-.8,14.59-.93,6.08-.17,12.12-.73,18.15-1.41,5.79-.65,11.59-1.1,17.38-1.71,1.89-.2,3.76-.66,5.64-.97,2.44-.39,4.89-.72,7.33-1.11,1.69-.26,3.18.31,4.55,1.15,1.53.94,1.97,2.46,1.02,4.18-.99,1.8-2.16,3.55-3.47,5.14-1.91,2.32-4.03,4.48-6.36,7.04l.04.02Z"/>
  <path class="cls-1" d="M48.64,211.4c-1.12,0-2.24-.04-3.36,0-4.58.17-7.62-2.03-9.23-6.18-1.16-2.99-1.88-6.06-1.26-9.37.56-2.97.63-6.04,1.15-9.02.59-3.45,1.42-6.85,2.17-10.27.67-3.03,1.26-6.09,2.07-9.08,1.52-5.62,3.03-11.24,4.79-16.78,1.76-5.54,3.66-11.05,5.76-16.47,3.25-8.4,6.75-16.69,11.11-24.59,2.04-3.7,3.87-7.52,6.02-11.15,3.25-5.49,7.7-9.54,14.16-10.93,1.79-.38,3.54-1.06,5.34-1.18,2.83-.2,4.38,1.92,3.28,4.5-1.61,3.73-3.38,7.4-5.22,11.03-4.89,9.62-9.17,19.52-12.72,29.7-2.47,7.08-4.71,14.25-6.87,21.43-1.66,5.49-3.12,11.03-4.49,16.6-.39,1.59-.26,3.35-.12,5,.11,1.33,1.26,1.84,2.45,1.83,1.83-.03,3.66-.22,5.49-.38.63-.06,1.25-.29,1.88-.34,7.15-.57,14.34-.88,21.46-1.73,6.37-.76,12.75-.9,19.13-1.23,3.83-.2,7.68-.09,11.52-.09,2.88,0,5.1,1.2,6.4,3.83.31.63.57,1.34.62,2.03.46,6.17-.36,12.18-2.99,17.78-2.36,5-6.37,8.29-11.78,9.8-3.57,1-7.21,1.28-10.89,1.43-3.19.13-6.36.63-9.55.77-6.47.3-12.95.39-19.41.74-3.81.2-7.6.73-11.4,1.12-.32.03-.63.11-.95.13-3.02.2-6.04.15-9.05.83-1.75.4-3.66.07-5.5.07v.18h0Z"/>
  <path class="cls-1" d="M291.46,22.27c1.86,3.18,4.36,5.18,7.14,6.72,2.07,1.15,4.4,1.87,6.66,2.65,5.42,1.88,10.95,3.48,16.29,5.57,4.7,1.83,8.89,4.68,12.85,7.82,5.27,4.17,10.24,8.67,14.67,13.75,1.05,1.2,2.34,2.18,3.38,3.38.93,1.07,1.8,2.24,2.45,3.5.85,1.63.05,3.09-1.79,3.3-1.17.13-2.45.14-3.56-.2-4.03-1.2-8.25-1.8-12.04-3.8-2.09-1.11-3.86-2.51-5.32-4.37-2.43-3.07-4.93-6.07-7.35-9.14-3.37-4.29-7.96-6.56-13.09-7.89-.87-.23-1.86-.03-2.72-.03-.64,1.36.3,1.88.91,2.59,2.03,2.35,4.05,4.71,6.02,7.12.44.54.73,1.24.95,1.92.87,2.71-.64,4.66-3.49,4.46-1.35-.09-2.7-.33-4.03-.58-6.19-1.16-12.36-2.44-18.57-3.49-4.15-.7-8.37-1.03-12.54-1.64-3.77-.55-7.11-1.82-8.6-5.85-1.27-3.43-2.72-6.8-4-10.23-.55-1.46.44-3.06,2.23-3.27,1.88-.21,3.82-.09,5.7.12,2.44.28,4.86.79,7.28,1.22,1.72.31,3.43.69,5.16.95.75.12,1.54.02,2.97.02-.84-1.04-1.24-1.69-1.79-2.18-4.85-4.4-9.7-8.8-14.63-13.11-.93-.81-2.18-1.42-3.38-1.71-2.54-.61-5.13-1.08-7.73-1.38-4.75-.55-9.52-.99-14.29-1.36-2.55-.2-5.11-.11-7.67-.22-1.59-.07-3.18-.26-4.76-.45-1.41-.17-2.31-1.08-2.86-2.3-1.44-3.18-1.34-6.57-.9-9.89.32-2.42,3.09-4.31,5.96-4.24,2.78.07,5.55.45,8.33.68,3.26.26,6.54.4,9.79.78,4.2.49,8.38,1.1,12.55,1.8,3.06.52,6.11,1.16,9.11,1.95,7,1.84,14.11,3.29,20.89,5.93,4.16,1.62,8.44,2.94,12.62,4.52,12.67,4.77,24.57,11.03,36.04,18.21,8.13,5.09,15.91,10.67,23.4,16.64,6.43,5.12,12.66,10.49,18.15,16.67,3.07,3.46,6.43,6.66,9.44,10.16,2.64,3.07,4.99,6.41,7.45,9.63.64.84.35,1.66-.13,2.46-.45.76-1.17.81-1.9.56-1.58-.54-3.16-1.1-4.7-1.73-4.79-1.98-9.59-3.93-14.34-6.01-3.09-1.35-5.89-3.11-8.21-5.67-4.4-4.85-8.74-9.77-13.46-14.29-5.47-5.25-11.19-10.24-17.03-15.07-4.35-3.61-8.89-7.04-13.63-10.11-7.31-4.74-14.99-8.8-23.47-11.17-3.74-1.05-7.4-2.41-11.11-3.57-1.06-.33-2.17-.58-3.28-.67-.59-.05-1.22.31-2.04.55h.02Z"/>
  <path class="cls-1" d="M0,209.23c.68-5.54,1.36-11.08,2.05-16.61.19-1.5.39-3,.64-4.49.45-2.66.86-5.33,1.43-7.97,1.32-6.07,2.41-12.2,4.43-18.09,1.81-5.28,3.5-10.6,5.52-15.79,1.96-5.03,4.4-9.88,6.39-14.9,2.58-6.48,6.37-12.3,9.77-18.32,1.29-2.28,2.85-4.45,4.58-6.41,2.01-2.29,4.81-3.64,7.46-5.05,2.6-1.38,5.39-2.42,8.15-3.47,2.77-1.05,4.72.57,4.05,3.48-.38,1.68-1.15,3.32-2.03,4.82-4.43,7.51-8.25,15.3-11.86,23.24-3.77,8.31-6.82,16.87-9.9,25.44-.7,1.94-1.14,3.98-1.67,5.98-.9,3.39-1.81,6.78-2.64,10.18-.68,2.78-1.28,5.58-1.85,8.39-.75,3.67-1.48,7.34-2.12,11.03-.35,2.04-.56,4.11-.75,6.18-.38,4.05-.6,8.12-1.1,12.16-.25,2.04-.82,4.08-1.54,6.01-.61,1.64-2.06,2.72-3.76,3.08-2.57.56-5.17.95-7.78,1.28-4.14.54-6.19-2.33-6.93-6.29-.23-1.25-.16-2.55-.22-3.83-.11,0-.21-.02-.32-.04h0Z"/>
  <path class="cls-1" d="M450.92,197.67c.18,4.23.33,7.89.5,11.55.11,2.38.22,4.69-.97,6.97-.92,1.77-2.14,2.85-4.03,2.9-3.11.08-6.22-.04-9.15-1.32-2.06-.91-3.21-2.63-3.83-4.66-.44-1.43-.48-2.98-.72-4.47-.25-1.57-.57-3.13-.77-4.7-.34-2.77-.53-5.56-.92-8.32-.68-4.89-1.22-9.82-2.27-14.64-1.51-6.92-3.2-13.83-5.23-20.62-2.39-8.02-5.15-15.92-8.37-23.67-4.21-10.12-9.14-19.85-14.57-29.35-1.1-1.93-1.92-4.02-2.75-6.09-.59-1.49.16-2.84,1.74-2.91,1.4-.07,2.99-.03,4.2.56,3.87,1.88,7.69,3.89,11.34,6.16,1.57.98,2.83,2.61,3.9,4.17,2.03,2.96,3.97,5.99,5.68,9.14,3.41,6.3,6.81,12.61,9.89,19.08,1.98,4.16,3.41,8.58,5.01,12.91,1.26,3.44,2.5,6.89,3.56,10.4,1.08,3.58,1.99,7.21,2.88,10.84.91,3.7,1.83,7.4,2.53,11.13.73,3.9,1.18,7.85,1.78,11.78.19,1.24.44,2.46.57,3.16h0Z"/>
  <path class="cls-1" d="M.95,242.07c-.22-1.58-.02-3.81,1.27-5.92,1.26-2.06,2.87-3.4,5.38-3.34,2.07.05,4.16,0,6.2.3,3.08.43,4.93,2.39,5.51,5.46.13.7.19,1.42.27,2.13.51,4.66,1.01,9.32,1.54,13.97.3,2.62.64,5.23,1.03,7.83.32,2.2.7,4.4,1.11,6.59.56,2.97,1.08,5.95,1.78,8.89.83,3.49,1.81,6.94,2.78,10.39.6,2.14,1.3,4.26,1.96,6.39,2.72,8.78,6.13,17.27,10.15,25.55,3.28,6.75,6.98,13.26,10.87,19.67.9,1.49,1.73,3.03,2.6,4.54.61,1.05.73,2.1,0,3.15-.75,1.09-1.89,1.17-3.01.94-1.31-.27-2.63-.63-3.87-1.14-2.79-1.15-5.57-2.36-8.29-3.68-1.04-.51-2.02-1.28-2.82-2.13-2.52-2.67-4.57-5.7-6.31-8.95-1.84-3.41-3.96-6.68-5.69-10.14-2.49-4.97-4.82-10.02-7.07-15.11-1.7-3.85-3.27-7.76-4.7-11.71-1.06-2.91-1.84-5.91-2.67-8.9-1.25-4.52-2.52-9.04-3.6-13.61-.73-3.09-1.2-6.25-1.7-9.39-.55-3.45-.78-6.97-1.56-10.36-.81-3.53-1.11-7.06-1.14-11.42h-.02Z"/>
  <path class="cls-1" d="M443.54,232.76h1.2c4.22-.11,6.57,3.25,6.53,6.7-.04,3.5.22,7.03-.12,10.5-.43,4.34-1.35,8.62-2.06,12.93-.22,1.34-.39,2.68-.65,4.01-1.48,7.67-3.48,15.22-5.89,22.65-1.45,4.48-2.8,8.99-4.43,13.41-1.32,3.58-2.88,7.08-4.54,10.52-2.34,4.85-4.79,9.66-7.36,14.4-1.79,3.29-3.71,6.53-5.84,9.6-2.45,3.51-5.5,6.41-9.71,7.85-2.85.98-5.66,2.1-8.49,3.15-.22.08-.47.11-.7.17-1.03.28-2.17.57-2.87-.44-.73-1.06-.54-2.24.14-3.37,3.57-5.95,7.27-11.83,10.62-17.9,2.77-5.02,5.22-10.23,7.61-15.45,1.79-3.91,3.42-7.91,4.84-11.96,1.76-5.03,3.34-10.13,4.8-15.27,1.35-4.74,2.47-9.55,3.59-14.36.63-2.72,1.08-5.48,1.57-8.22.44-2.42.89-4.84,1.22-7.28.64-4.65,1.37-9.29,1.73-13.97.37-4.93,2.65-7.42,7.62-7.68.4-.02.8-.04,1.2-.06v.06h-.01Z"/>
  <path class="cls-1" d="M250.51,98.01c-4.55,0-9.11.06-13.66-.04-1.32-.03-2.76-.26-3.91-.85-1.7-.86-2.75-2.37-2.74-4.44.02-6.31.02-12.62.02-18.93,0-2.36,1.29-3.91,3.25-4.91,1.56-.8,3.24-1.31,5.06-1.21,6.37.34,12.76.49,19.12.99,4.95.39,8.56,2.91,10.05,7.86,1.57,5.21,2.68,10.51,2.66,15.98-.01,3.42-2.03,5.54-5.47,5.6-4.79.08-9.58.02-14.37.02v-.08h0Z"/>
  <path class="cls-1" d="M248.91,51.48c-3.13-.22-6.08-.36-9.02-.64-3.61-.34-6.33-3.16-6.9-6.27-.51-2.78-.68-5.52-.75-8.31-.06-2.23-.26-4.46-.36-6.69-.07-1.77.37-3.45,2.04-4.29,1.25-.63,2.69-1.03,4.09-1.18,3.12-.35,6.2.08,9.22.89,1.46.39,2.64,1.24,3.29,2.58,1.06,2.22,2.11,4.46,2.9,6.78,1.14,3.31,1.98,6.73,3.08,10.05,1.39,4.21-2.11,7.48-5.87,7.08-.63-.07-1.28,0-1.73,0h.01Z"/>
</svg>