<?xml version="1.0" encoding="UTF-8"?>
<svg id="Layer_1" data-name="Layer 1" xmlns="http://www.w3.org/2000/svg" viewBox="0 0 207.84 59.52">
  <defs>
    <style>
      .cls-1 {
        fill: #555;
      }

      .cls-1, .cls-2 {
        stroke-width: 0px;
      }

      .cls-2 {
        fill: #aaa;
      }
    </style>
  </defs>
  <path class="cls-1" d="M207.84,34.56c-.89,2.02-1.31,4.18-1.9,6.29-.24.87-.57,1.27-1.52,1.17-.86-.09-1.74-.03-2.62-.04.02-.56.04-1.12.07-1.67.36,0,.72-.02,1.08.02.82.1,1.29-.12,1.47-1.05.25-1.28.65-2.53,1.06-3.77.18-.55.07-.72-.49-.71-1.04.02-2.08.01-3.11.02-.02-.56-.04-1.12-.07-1.67,2.01,0,4.02-.01,6.03-.02v1.44Z"/>
  <path class="cls-2" d="M169.44,54.25c-1.72,1.18-3.68.95-5.6.95-1.2,0-2.4,0-3.6,0-1.73,0-1.77,0-1.82,1.71-.02.62-.24.71-.77.7-2.88-.02-5.76-.03-8.64,0-.61,0-.71-.2-.7-.75.02-6-.05-12,.05-17.99.04-2.32,1.81-3.63,3.57-4.78,1.09-.72,2.29-1.04,3.66-1,3.08.1,6.16.03,9.23.03,1.07,0,2.14-.08,3.19.23.71.49,1.43.97,2.14,1.46,1.58,1.18,2.51,2.61,2.45,4.72-.1,3.38,0,6.76,0,10.14-.09.37-.1.74-.22,1.12-.52,1.57-1.85,2.4-2.93,3.47ZM162.49,41.8h-1.95q-2.15-.11-2.15,2.01c0,.64.06,1.28-.01,1.91-.1.83.3.95.96.8.65,0,1.3,0,1.95,0,.48-.04,1.34.3,1.36-.21.05-1.5.35-3.03-.16-4.52ZM164.68,46.55c-.02.56-.05,1.12-.07,1.67l-2.36.06c-.48-.01-.96.01-1.43-.05-.78-.1-1.04.18-1,.98.07,1.15.07,2.32,0,3.47-.06.85.35.93.99.8.96.01,1.92.07,2.87.03,1.14-.05,2.28.18,3.41-.21,2.33-.81,3.54-2.41,3.54-4.83,0-3,0-5.99,0-8.99,0-2.19-2.33-4.63-4.55-4.67-2.08-.04-4.15.03-6.23.05-1.05,0-2.1-.02-3.16-.03-1.3-.12-2.58-.1-3.73.67-1.28.84-2.67,1.67-2.71,3.39-.07,3.59,0,7.18.01,10.77.01,1.93.02,3.87.03,5.8-.08.64.42.45.72.45,1.47.02,2.95-.04,4.42.03.82.04,1.07-.17,1.06-1.03-.05-4.62,0-9.24-.04-13.87,0-.77.19-1,.98-.98,2.39.06,4.78.03,7.17.04l.07,1.67c0,1.59,0,3.18,0,4.77Z"/>
  <path class="cls-2" d="M21.12,30.01c-2.78.5-5.6.07-8.39.27-1.03-.27-1.36.17-1.22,1.15.05.39,0,.79-.02,1.19-3,0-5.99-.01-8.99.04-.72.01-.83-.25-.83-.89.02-6.15,0-12.31.03-18.46.01-1.73,1.36-2.73,2.54-3.64,1.59-1.22,3.43-1.95,5.55-1.76,1.03.09,2.08,0,3.12.02,2.58.05,5.17-.17,7.75.23.95.56,1.91,1.13,2.86,1.69.43.46.88.92,1.29,1.39.52.6.9,1.25.9,2.09-.02,4.2-.02,8.39-.02,12.59-.44.93-1.28,1.53-1.9,2.31-.71.89-1.86,1.05-2.64,1.78ZM14.63,16.84c-.08-.01-.16-.03-.24-.03q-2.87-.07-2.87,2.75,0,1.86,1.91,1.76c2.24.04,2.46.55,2.41-2.26,0-.36-.04-.72,0-1.07.14-.99-.2-1.42-1.22-1.15ZM17.8,21.35c-.02.64-.05,1.28-.07,1.91-.47.02-.93.04-1.4.06-1.07,0-2.46-.39-3.13.13-.72.56-.15,2.01-.24,3.07,0,.08,0,.16,0,.24q0,1.86,1.93,1.76c1.44.01,2.87.07,4.31.03,2.52-.07,4.8-2.43,4.8-4.92,0-3.03-.14-6.07.04-9.1.13-2.24-3.01-4.65-4.6-4.68-1.91-.04-3.83.03-5.74.05-.97-.01-1.95-.02-2.92-.03-1.59.04-3.23-.4-4.69.66-1.29.94-2.7,1.82-2.72,3.64-.03,4.55,0,9.1.02,13.64-.01.66.03,1.33-.05,1.99-.12,1,.26,1.36,1.23,1.11,1.32.01,2.64-.04,3.95.06.91.07,1.11-.22,1.1-1.11-.05-4.59,0-9.18-.04-13.77,0-.75.14-1.02.96-1,2.39.07,4.79.03,7.18.04.02.56.05,1.12.07,1.67,0,1.51,0,3.02,0,4.53Z"/>
  <path class="cls-2" d="M183.67,23.06c-.02,2.12-.08,4.23-.05,6.35,0,.7-.21.85-.87.85-5.79-.02-11.58.02-17.37-.03-2.99-.02-6.03-3.21-6.01-6.18.01-2.92.17-5.84-.04-8.74-.23-3.15,1.52-4.85,3.86-6.28,1.06-.65,2.19-.91,3.46-.88,2.91.06,5.83.02,8.75.02,1.07,0,2.14-.08,3.18.23.95.57,1.91,1.13,2.86,1.7.97,1.14,2.12,2.19,2.17,3.84.03,1.03.03,2.06.04,3.09.01,2.01.02,4.03.03,6.04ZM164.84,10.3l.02-.02c-1.71.64-3.1,1.57-3.62,3.5-.37,1.41-.12,2.8-.17,4.21.01,1.93.02,3.87.03,5.8-.34,2.4,2.85,4.74,4.67,4.76,4.9.05,9.8,0,14.7-.02.98.25,1.35-.12,1.22-1.12-.08-.66-.06-1.32-.08-1.99.02-.24.04-.48.05-.72q.07-1.42-1.32-1.42c-3.95,0-7.9-.02-11.85.02-.77,0-1.02-.17-.99-.97.06-2.03.04-4.07,0-6.11-.01-.65.14-.89.84-.88,2.35.05,4.71.03,7.06.04.01,1.12.02,2.23.03,3.35q0,1.47,1.45,1.4c1.35.01,2.71,0,4.06.05.58.02.75-.16.74-.73-.04-1.47-.01-2.95-.01-4.43,0-2.53-2.48-5.12-5.05-5.16-2.55-.04-5.1.03-7.65.05-1.22,0-2.45-.34-3.64.21-.21-.05-.4-.07-.5.18ZM171.37,17.08q-2.17-.11-2.17,2.01c0,.56.05,1.13-.01,1.68-.1.85.34.93.99.8.28.01.56.03.83.04q2.51.01,2.51-2.52,0-2.11-2.15-2Z"/>
  <path class="cls-2" d="M86.4,12.98c1.21-2.23,2.92-3.86,5.41-4.64.4-.12.76-.17,1.14-.17,3.64-.01,7.27,0,10.91-.02.61,0,1.15.24,1.75.24.87.49,1.75.97,2.62,1.46.17.21.33.44.53.63,1.34,1.23,1.97,2.69,1.92,4.57-.09,3.3,0,6.6,0,9.91-.02,1.76-.04,3.52-.07,5.28-6.03,0-12.06.03-18.09.01-3-.01-6.11-3.23-6.12-6.23,0-3.19-.02-6.39-.04-9.58.01-.48.03-.96.04-1.44ZM100.52,17.78c.07-.41.11-.79-.51-.74-.46.03-.93.03-1.39.04q-2.39-.12-2.39,2.25c0,.4.05.81-.01,1.2-.17,1.03.31,1.26,1.2,1.04.65,0,1.3,0,1.95,0,.88.21,1.32,0,1.21-1.04-.1-.91-.04-1.83-.06-2.74ZM102.52,21.59c-.01,1.93.03,3.87-.06,5.8-.05,1,.24,1.39,1.24,1.14,1.36.01,2.71-.02,4.07.06.79.04.99-.21.98-.98-.04-4.19-.02-8.38-.02-12.57,0-2.59-2.53-5.15-5.16-5.18-1.79-.02-3.59.04-5.38.06-1.05-.01-2.1-.02-3.16-.03-1.18-.11-2.34-.09-3.44.44-1.9.93-3.61,2.35-3.53,4.93.09,2.82.02,5.65.02,8.47,0,.43-.08.87.28,1.22.65,2.13,2.28,3.08,4.3,3.55,1.91.02,3.83.02,5.74.08.58.02.75-.17.73-.74-.04-1.28-.04-2.55,0-3.83.02-.58-.16-.76-.74-.73-1,.04-2-.03-2.99.03-.68.04-.88-.18-.86-.86.04-2.07.04-4.15,0-6.22-.01-.66.15-.89.84-.87,2.35.05,4.71.03,7.06.04.02.56.05,1.12.07,1.67,0,1.51,0,3.02,0,4.53Z"/>
  <path class="cls-2" d="M143.01,55.18c-6.03,0-12.06.03-18.09.01-2.87-.01-5.88-3.13-5.88-6,0-3.75-.01-7.51-.02-11.26.05-.06.06-.12.03-.19,1.37-2.18,3.12-3.86,5.72-4.5.4-.1.78-.11,1.17-.11,3.4-.01,6.8.01,10.19-.02.73,0,1.39.28,2.11.24.79.48,1.59.97,2.38,1.45.29.32.55.68.87.96,1.17.98,1.65,2.18,1.57,3.74-.1,1.87,0,3.74.01,5.61-.02,3.36-.05,6.72-.07,10.07ZM129.82,46.49c.57.01,1.14.02,1.72.03q1.66.08,1.66-1.53c0-.84,0-1.67,0-2.51,0-.34-.08-.54-.47-.44-.57,0-1.14,0-1.71,0q-2.14-.1-2.14,2.01c0,.56.05,1.12-.01,1.67-.1.82.26.97.95.78ZM135.16,42.01c-.01.68.04,1.36-.05,2.03-.14,1.03.32,1.26,1.2,1.04.65,0,1.3,0,1.95,0,.8.01,1.59,0,2.38.05.58.04.75-.16.73-.73-.04-1.31-.13-2.64.01-3.94.33-3.12-2.17-4.81-4.43-5.41-2.1-.56-4.25-.17-6.37-.18-1.05,0-2.1-.02-3.16-.03-2.17-.25-3.96.58-5.49,2.02-.61.57-1.21,1.25-1.21,2.18,0,3.38.02,6.76.03,10.14-.02,1.56,1.07,2.93,2.85,3.61.55.46,1.17.73,1.91.73,5.03,0,10.07-.02,15.1.02.7,0,.77-.28.76-.84-.03-1.12-.07-2.24,0-3.35.06-.86-.15-1.14-1.08-1.13-4.15.06-8.31.01-12.47.04-.64,0-.9-.11-.89-.83.05-2.08.04-4.16,0-6.23-.01-.64.12-.9.83-.89,2.44.05,4.87.03,7.31.04.02.56.05,1.12.07,1.67Z"/>
  <path class="cls-2" d="M73.65,55.18c-2.99,0-5.99,0-8.98.04-.7.01-.85-.21-.85-.87.02-6.78.03-13.57,0-20.35,0-.79.27-.89.95-.89,5.15.03,10.3,0,15.44.02.54,0,1.08.14,1.62.22.87.48,1.75.97,2.62,1.45.18.21.32.45.53.62,1.43,1.19,1.99,2.71,1.91,4.57-.08,1.91.03,3.82-.04,5.73-.03.83.31.94.97.8.16.01.32.06.48.03.99-.17,1.28.2,1.24,1.21-.09,2.47-.05,4.94-.06,7.42-2.19,0-4.38.11-6.57,0-2.05-.11-3.58-1.35-4.91-2.8-1.04-1.13-1.29-2.52-1.22-4,.03-.67-.02-1.35-.03-2.03.01-1.22,0-2.43.05-3.65.02-.59-.18-.79-.75-.65-.44-.01-.88.02-1.31-.05-.92-.15-1.12.22-1.09,1.1.08,2.27.05,4.54.06,6.81-.02,1.76-.04,3.52-.07,5.28ZM78.76,42.01c0,2.55,0,5.1,0,7.65.49,2.03,1.94,3.03,3.81,3.61.52.42,1.13.23,1.7.24,1.07.02,2.48.36,3.12-.17.68-.56.18-2.02.21-3.09.03-1.74,0-1.78-1.71-1.75-.71.01-.96-.14-.94-.91.05-2.56.02-5.12.02-7.68,0-2.42-1.85-4.51-4.25-4.88-2.97-.46-5.95-.18-8.93-.17-.57,0-1.14-.02-1.72-.03-1.2-.01-2.39,0-3.59-.05-.59-.03-.73.18-.73.74.03,4.55.04,9.1.05,13.65-.01,1.18.03,2.36-.05,3.53-.06.86.37.88.99.77,1.44.01,2.87-.02,4.31.06.79.04.99-.21.98-.98-.04-3.79,0-7.58-.03-11.37,0-.65.13-.9.84-.88,1.95.05,3.91.03,5.86.04.02.56.05,1.12.07,1.67Z"/>
  <path class="cls-2" d="M31.44,11.78c1.03-1.04,2-2.13,3.35-2.8.88-.43,1.74-.82,2.73-.81,3.63,0,7.26.02,10.89-.01.61,0,1.15.24,1.74.24.79.48,1.59.97,2.38,1.45.29.32.55.68.88.96,1.17.98,1.6,2.19,1.57,3.74-.07,4.43,0,8.85,0,13.28-.02.8-.04,1.6-.07,2.4-6.03,0-12.06,0-18.09.02-1.24,0-2.23-.64-3.17-1.3-.78-.55-1.52-1.22-2.07-2.03-.41-.61-.68-1.27-.67-2.07.04-2.59,0-5.19-.02-7.78.19-1.76-.32-3.59.52-5.28ZM43.91,17.08c-.08-.01-.16-.03-.24-.03q-2.87-.07-2.87,2.75,0,1.86,1.91,1.76c1.86.12,2.48.42,2.41-2.27,0-.36-.04-.72,0-1.07.14-.99-.2-1.42-1.22-1.15ZM47.08,21.59c-.01,1.78-.03,3.55-.04,5.33,0,1.69,0,1.69,1.7,1.61,1.2.01,2.39-.03,3.59.05.8.05.98-.22.97-.99-.04-4.11-.12-8.22.02-12.32.09-2.8-1.78-4.12-3.55-4.93-2.02-.93-4.19-.42-6.31-.43-1.05-.01-2.11-.02-3.16-.03-1.56-.01-3.13-.26-4.6.6-1.96,1.15-3.26,2.52-3.1,5.05.18,2.91.05,5.83.04,8.75,0,.87.28,1.59.96,2.14,1.09,1.24,2.36,2.12,4.1,2.07,1.75.02,3.51.02,5.26.08.59.02.75-.18.73-.74-.04-1.28-.04-2.55,0-3.83.02-.58-.17-.76-.74-.73-1.08.04-2.16-.03-3.23.03-.68.03-.87-.18-.86-.86.04-2.07.04-4.15,0-6.22-.01-.66.15-.89.85-.87,2.43.05,4.87.03,7.3.04.02.56.05,1.12.07,1.67,0,1.51,0,3.02,0,4.53Z"/>
  <path class="cls-2" d="M201.88,40.31c-.02.56-.04,1.12-.07,1.67-2.62.03-5.25.06-7.87.09-.57,0-1.14-.02-1.71-.03q-1.91-.09-1.91,1.77c0,.72.03,1.44,0,2.15-.03.59.24.68.72.56.65,0,1.3,0,1.95,0,1.75.02,3.49.04,5.24.06.03,2.4.06,4.8.1,7.2.19,1.21-.35,1.48-1.52,1.45-3.39-.09-6.78-.03-10.18-.03-2.92,0-6.14-3.22-6.14-6.11,0-2.12,0-4.23,0-6.35,0-.42.03-.76-.59-.76-.74,0-1.75.36-2.16-.17-.38-.49-.14-1.45-.17-2.2,0-1.05,0-2.1,0-3.15.01-.08.03-.16.03-.24.02-.99-.34-2.36.17-2.88.66-.67,2.03-.21,3.09-.22,6.99-.01,13.97,0,20.96,0,.02.56.04,1.12.07,1.67,0,1.83,0,3.66,0,5.49ZM182.44,42.01c0,1.91,0,3.82,0,5.73-.01.44-.01.87-.04,1.31-.09,1.52.49,2.65,1.93,3.27.69.77,1.63,1.16,2.59,1.18,2.92.08,5.84.01,8.76.04.54,0,.67-.19.66-.69-.03-1.28-.05-2.56,0-3.84.03-.67-.24-.78-.82-.77-1.88.03-3.76-.04-5.64.03-.95.04-1.32-.14-1.26-1.2.1-1.83.09-3.68,0-5.52-.04-.96.16-1.29,1.21-1.26,3.08.08,6.16.01,9.24.04.65,0,.91-.13.88-.84-.06-1.32-.04-2.64,0-3.96.02-.56-.14-.75-.73-.75-4.64.04-9.27.04-13.91.05h-1.95c-.2-.01-.4-.04-.6-.04-1.03.01-2.41-.36-3,.16-.69.6-.2,2.02-.22,3.07-.03,2.36-.01,2.36,2.38,2.25,1.02.32.22,1.19.53,1.73Z"/>
  <path class="cls-2" d="M29.25,41.98c-1.99.02-3.97.04-5.96.06-.65,0-1.3,0-1.95,0q-1.67-.08-1.67,1.53c0,.84,0,1.68,0,2.51,0,.34.08.55.47.44.65,0,1.3,0,1.95,0,2.39.02,4.77.04,7.16.06.03,2.4.06,4.8.1,7.2.16,1.19-.34,1.48-1.52,1.45-3.88-.09-7.76-.03-11.64-.03-3.27,0-6.35-3.04-6.35-6.27,0-3.08.07-6.16-.03-9.24-.07-2.14,1.01-3.59,2.51-4.81,1.59-1.29,3.41-1.87,5.53-1.8,3.8.13,7.6.05,11.4.05.02.56.05,1.12.07,1.67,0,1.83,0,3.66,0,5.49-.02.56-.05,1.12-.07,1.67ZM11.8,47.5c-.01.76-.12,1.53-.01,2.27.15,1.01.52,1.96,1.66,2.3.75.96,1.81,1.41,2.96,1.43,3.48.06,6.95,0,10.43.04.67,0,.79-.24.77-.83-.04-1.16-.08-2.32,0-3.48.07-.89-.28-1.03-1.07-1.02-2.6.05-5.2,0-7.79.03-.73.01-1.04-.11-1.02-.95.07-2,.07-4,0-5.99-.03-.9.3-1.02,1.08-1.01,2.64.05,5.28,0,7.91.03.64,0,.92-.12.88-.84-.06-1.28-.05-2.56,0-3.84.02-.65-.14-.9-.84-.88-1.88.07-3.75.06-5.63.08l-3.16-.03c-1.42-.21-2.78.17-3.86.98-1.02.77-2.34,1.51-2.35,3.07-.03,2.87.01,5.74.03,8.61Z"/>
  <path class="cls-2" d="M114.07,53.54q-.11,1.66-1.76,1.66c-3.8,0-7.6-.08-11.4.03-2.07.06-5.36-1.98-6.26-4.4-.12-.32-.08-.7-.08-1.06,0-3.6.06-7.2-.04-10.8-.04-1.43.65-2.47,1.51-3.3,1.82-1.75,3.96-2.73,6.66-2.6,3.75.19,7.52.06,11.27.06.02.56.05,1.12.07,1.67,0,1.83,0,3.66,0,5.49-.02.56-.05,1.12-.07,1.67-2.06.03-4.13.06-6.19.09l-1.72-.03c-.28-.01-.56,0-.83-.04-.92-.17-1.16.22-1.09,1.1.08.95.05,1.91,0,2.87-.02.59.24.68.72.56.65,0,1.3,0,1.95,0,2.39.02,4.77.04,7.16.06.03,2.32.06,4.64.1,6.96ZM96.28,48.22c-.11,2.23.68,3.66,2.37,4.33.56.69,1.35.94,2.17.95,3.51.04,7.03,0,10.54.03.58,0,.75-.17.73-.74-.04-1.24-.05-2.48,0-3.71.03-.69-.19-.86-.86-.85-2.63.04-5.27,0-7.91.03-.67,0-.88-.18-.86-.86.04-2.08.04-4.15,0-6.23-.01-.67.17-.88.85-.86,2.63.04,5.27,0,7.91.03.66,0,.9-.15.87-.85-.06-1.28-.05-2.56,0-3.83.03-.66-.15-.9-.85-.87-1.87.07-3.75.06-5.63.08-1.05-.01-2.1-.02-3.16-.03-1.2-.16-2.36.09-3.36.71-1.33.82-2.77,1.73-2.83,3.48-.11,3.06,0,6.13,0,9.19Z"/>
  <path class="cls-2" d="M59.96,10.3q.1-2.14,2.32-2.14c3.42,0,6.85,0,10.27,0,1.42,0,2.85-.08,4.25.23.79.48,1.59.97,2.38,1.45.69.93,1.74,1.63,1.93,2.86.4,2.56.57,5.12-.44,7.61-.1.24-.47.47-.13.84.8.87.84,1.97.86,3.07-.02,2-.04,4-.07,6-2.99,0-5.99,0-8.98.04-.7.01-.87-.22-.84-.87.05-1.2-.03-2.4.03-3.59.03-.7-.21-.86-.87-.85-1.76.04-3.51-.02-5.27.03-.69.02-.86-.2-.85-.87.04-2.07-.01-4.15.03-6.23.01-.68-.19-.88-.86-.86-1.24.05-2.47,0-3.71,0-.01-2.24-.03-4.48-.04-6.72ZM66.95,23.24c.65,0,1.3,0,1.95,0,1.43.02,2.85.04,4.28.06.01,1.44.06,2.88.01,4.31-.03.79.2,1.12,1,.91,1.52.01,3.03,0,4.55.05.59.02.74-.18.73-.74-.04-1.28-.04-2.55,0-3.83.02-.79-.11-1.46-.7-2.04-.39-.38-.8-1-.41-1.47,1.41-1.7.89-3.72,1.15-5.63.36-2.67-2.65-4.94-4.85-5.01-2.15-.06-4.31,0-6.46.02-.65,0-1.3,0-1.95,0-.52-.01-1.04-.04-1.55-.03-.87,0-2.02-.3-2.54.14-.61.52-.2,1.71-.2,2.61-.03,2.87-.01,2.87,2.86,2.72.65,0,1.3,0,1.95,0l6.68.06c0,.87,0,1.73,0,2.6-1.1.03-2.21.06-3.31.09-.57,0-1.14-.02-1.72-.03-.4-.01-.8.01-1.19-.05-.81-.12-1.01.22-.97.98.06,1.19.04,2.39,0,3.59-.01.55.09.86.72.68Z"/>
  <path class="cls-2" d="M56.17,53.77c-1.63,1.01-3.33,1.55-5.33,1.47-3.47-.14-6.94-.03-10.41-.04-2.91,0-6.11-3.23-6.11-6.14,0-3.47-.01-6.94-.02-10.41.02-.15.04-.31.06-.46.94-2.73,4.76-5.34,7.62-5.12,2.77.22,5.57.04,8.36.05,1.06,0,2.13-.08,3.18.23.87.48,1.75.97,2.62,1.45.23.27.44.56.7.79,1.26,1.1,1.79,2.43,1.74,4.14-.09,2.99,0,5.98,0,8.96.23,1.85-.47,3.3-1.92,4.43-.21.16-.34.42-.51.63ZM38.65,52.55c.11.36.34.53.72.48.56.4,1.19.5,1.87.49,3.56,0,7.12,0,10.67,0,1.64,0,2.86-.97,3.93-2.04.48-.48.85-1.14.83-1.99-.06-3.48-.03-6.95-.02-10.43,0-.45-.03-.88-.29-1.24-.97-1.35-2.2-2.39-3.86-2.78-2.2-.51-4.43-.17-6.64-.18-1.05,0-2.1-.02-3.16-.03-1.63-.22-3.14.18-4.37,1.21-.9.75-2.09,1.4-2.09,2.84,0,3.19.02,6.38.03,9.57-.1,2.1.66,3.41,2.37,4.09h0Z"/>
  <path class="cls-2" d="M149.3,21.56c1.66.02,3.33.04,4.99.06.03,2.08.06,4.16.1,6.24q-.11,2.38-2.48,2.38c-2.76,0-5.51,0-8.27,0-2.95,0-6.12-3.17-6.12-6.12,0-4.99.01-9.98-.02-14.98,0-.75.14-1.02.96-1,2.87.06,5.75.03,8.62.04l.07,1.67c-.01,3.71-.03,7.42-.04,11.13,0,.3-.09.7.46.55.57.01,1.15.02,1.72.03ZM139.48,21.58c-.01.92-.01,1.84-.04,2.76-.04,1.2.43,2.13,1.45,2.77.92.73,1.88,1.42,3.1,1.44,2.56.04,5.12,0,7.68.02.56,0,.77-.13.75-.72-.04-1.24-.05-2.48,0-3.72.03-.67-.17-.89-.85-.87-1.68.05-3.36-.04-5.04.04-.9.04-1.12-.21-1.11-1.11.06-3.84.02-7.68.03-11.51,0-.5.08-1.02-.71-.8-.57,0-1.14,0-1.71,0-.96-.01-1.92,0-2.87-.05-.59-.03-.73.18-.73.74.03,3.67.04,7.34.05,11.01Z"/>
  <path class="cls-2" d="M199.45,21.56c1.72.01,3.44.05,5.15.02.64,0,.91.11.89.83-.06,2.36-.07,4.71-.04,7.07.01.69-.27.76-.84.76-3.4-.02-6.79.06-10.19-.03-2.17-.06-5.9-2.97-5.83-5.84.13-5.07.05-10.15.02-15.22,0-.74.12-1.03.95-1.01,2.88.06,5.75.03,8.63.04.02.56.05,1.12.07,1.67,0,2.87,0,5.74,0,8.61-.01.66.03,1.33-.05,1.99-.12,1,.26,1.36,1.23,1.11ZM192.95,9.88c-.48-.01-.96.02-1.43-.05-.8-.11-.99.21-.97.98.06,2.39.04,4.78.05,7.17.01,1.93.02,3.87.03,5.8-.11,2.44,1.9,4.69,4.39,4.76,2.68.07,5.36-.02,8.03,0,.52,0,.69-.15.68-.68-.02-1.24-.02-2.48.04-3.71.03-.66-.14-.9-.84-.88-1.8.05-3.6-.02-5.4.03-.77.02-1-.17-.99-.97.04-3.8,0-7.6.04-11.39.01-.87-.17-1.28-1.09-1.09-.19.04-.4.03-.6.04-.65,0-1.3,0-1.95,0Z"/>
  <path class="cls-2" d="M115.64,11.74c.01-.92.07-1.83.02-2.75-.04-.69.19-.86.86-.85,2.91.04,5.82.03,8.72.03.02.56.05,1.12.07,1.67-.01,3.47.04,6.95-.07,10.42-.04,1.24.38,1.53,1.46,1.29.65,0,1.3,0,1.95,0,1.27.02,2.53.04,3.8.06.02.56.05,1.12.07,1.67,0,.95,0,1.9,0,2.85-.02,1.36-.04,2.72-.07,4.08-3.63,0-7.26.11-10.89-.01-2.32-.08-6.05-3.04-5.92-5.98.14-3.1,0-6.22,0-9.33v-3.15ZM122.15,9.88c-1.2-.01-2.4.03-3.6-.06-.82-.06-.97.24-.97,1,.03,4.56.01,9.12.03,13.68,0,.32-.21.73.22.96.77,1.83,2.24,2.69,4.1,3.04,2.71.02,5.43.03,8.14.08.58.01.75-.17.73-.74-.04-1.28-.04-2.56,0-3.83.02-.58-.17-.74-.74-.73-1.84.03-3.67-.03-5.51.03-.79.03-.99-.2-.98-.98.03-3.35,0-6.71-.02-10.06.01-.35.03-.7.04-1.05q0-1.4-1.45-1.33Z"/>
  <path class="cls-1" d="M31.44,11.78c-.84,1.69-.33,3.52-.52,5.28-.87,2.08-1.42,4.27-1.94,6.44-.83,3.45-3.29,5.07-6.24,6.28-.48.2-1,.75-1.62.24.78-.74,1.93-.89,2.64-1.78.62-.78,1.46-1.38,1.9-2.31.71-.3.96-.98,1.14-1.6,1.04-3.57,2.01-7.15,3.02-10.72.1-.36.14-.65-.01-1.02-.74-1.76-2.15-2.74-4.04-2.74-.76,0-1.51,0-2.27,0-.95-.56-1.91-1.13-2.86-1.69.31-.38.74-.23,1.11-.22,1.85.08,3.72-.21,5.57.21,2.06.47,3.44,1.64,4.12,3.64Z"/>
  <path class="cls-1" d="M143.01,55.18c.02-3.36.05-6.72.07-10.07.96.21,1.41-.19,1.62-1.14.36-1.58.8-3.15,1.29-4.7.24-.75.2-1.39-.18-2.06-1.15-2.05-3.04-2.51-5.19-2.41-.79-.48-1.59-.97-2.38-1.45,2.79-.33,5.66-.9,7.99,1.28,1.36,1.27,2.27,2.77,1.64,4.87-1.52,5.08-2.92,10.2-4.36,15.3-.08.29-.24.39-.51.38Z"/>
  <path class="cls-1" d="M89.49,55.18c.01-2.47-.03-4.95.06-7.42.04-1.01-.26-1.38-1.24-1.21-.15.03-.32-.02-.48-.03.71-2.52,1.42-5.03,2.12-7.55.29-1.05.02-1.91-.75-2.71-1.33-1.38-3.01-1.47-4.74-1.46-.87-.48-1.75-.97-2.62-1.45,3.13-.29,6.3-.95,8.89,1.77,1.19,1.26,1.44,2.65,1.07,4.17-.51,2.12-1.13,4.21-1.79,6.28-.26.84-.06,1.01.76,1,1.54-.02,1.57.02,1.17,1.49-.58,2.14-1.2,4.27-1.82,6.4-.09.3-.08.78-.62.71Z"/>
  <path class="cls-1" d="M59.96,10.3c.01,2.24.03,4.48.04,6.72-.6,2.92-1.58,5.73-2.36,8.59-.3,1.11-.7,2.2-.92,3.32-.21,1.06-.7,1.53-1.79,1.28.02-.8.04-1.6.07-2.4,1.35-4.66,2.7-9.31,4.04-13.97.09-.32.24-.61.07-1.02-.56-1.31-1.39-2.28-2.78-2.75-1.25-.42-2.52-.16-3.79-.24-.79-.48-1.59-.97-2.38-1.45.43-.43.98-.19,1.47-.22.75-.04,1.51.06,2.25-.02,2.39-.26,4.44.34,6.08,2.16Z"/>
  <path class="cls-1" d="M115.64,11.74v3.15c-.89,2.32-1.43,4.74-2.11,7.11-.71,2.46-1.41,4.92-2.1,7.39-.12.44-.22.87-.82.82.02-1.76.04-3.52.07-5.28,1.03-3.56,2.02-7.14,3.12-10.68.38-1.22-.08-2.04-.79-2.91-1.28-1.55-3-1.62-4.78-1.51-.87-.49-1.75-.97-2.62-1.46,1.35-.5,2.75-.1,4.12-.23,1.64-.16,3.04.38,4.28,1.43.71.6,1.1,1.43,1.64,2.15Z"/>
  <path class="cls-1" d="M81.33,30.22c.02-2,.04-4,.07-6,.52-.83.61-1.68.12-2.57-.32-.59-.21-1.14.31-1.61.29-.26.51-.6.76-.91,1.11-1.39,1.27-3.13,1.78-4.75.58-1.86-.06-3.21-1.8-4.08-1.09-.54-2.23-.47-3.38-.47-.79-.48-1.59-.97-2.38-1.45,3.49-1.2,7.32-.19,8.99,2.35.46.7.64,1.43.61,2.24-.01.48-.03.96-.04,1.44-.38,1.2-.74,2.4-1.14,3.58-.16.48-.33,1-.63,1.4-.69.91-1.09,1.76-.88,3.01.24,1.45-.67,2.81-.96,4.24-.22,1.08-.62,2.12-.91,3.19-.08.29-.24.38-.51.38Z"/>
  <path class="cls-1" d="M177.56,36.46c0,1.05,0,2.1,0,3.15-1.01,3.4-2.01,6.79-3.03,10.18-.73,2.44-2.87,3.45-4.83,4.62-.04.02-.18-.11-.27-.17,1.08-1.07,2.41-1.9,2.93-3.47.13-.38.13-.75.22-1.12,1.03-3.52,2.08-7.03,3.07-10.55.42-1.49-.11-2.47-1.32-3.45-1.3-1.06-2.75-.83-4.21-.85-.71-.49-1.43-.97-2.14-1.46,1.11-.48,2.27-.11,3.4-.23,2.68-.29,4.63.75,5.88,3.13.05.09.19.14.28.21Z"/>
  <path class="cls-1" d="M56.17,53.77c.17-.21.3-.47.51-.63,1.45-1.13,2.15-2.58,1.92-4.43.94-3.22,1.87-6.44,2.85-9.65.23-.76.13-1.36-.27-2.01-1.17-1.9-2.98-2.34-5.04-2.24-.87-.48-1.75-.97-2.62-1.45,3.06-.33,6.2-.95,8.61,1.79,1.12,1.27,1.67,2.69,1.13,4.46-1,3.29-1.86,6.62-2.84,9.92-.64,2.15-2.12,3.54-4.25,4.25Z"/>
  <path class="cls-1" d="M128.65,21.56c-.65,0-1.3,0-1.95,0,1.05-3.64,2.08-7.29,3.16-10.92.2-.68.04-.83-.61-.82-1.31.03-2.63.02-3.94.02-.02-.56-.05-1.12-.07-1.67,2.07,0,4.15.01,6.22-.03.81-.02,1.01.15.76.99-1.23,4.13-2.39,8.28-3.58,12.42Z"/>
  <path class="cls-1" d="M147.16,9.85l-.07-1.67c1.75,0,3.51,0,5.26-.03.6,0,.75.14.57.76-.91,3.11-1.77,6.24-2.66,9.36-.31,1.1-.64,2.2-.96,3.3-.57-.01-1.15-.02-1.72-.03-.03-.52.11-1.02.26-1.52.89-3.08,1.76-6.16,2.65-9.24.2-.68.15-1.03-.7-.96-.87.07-1.75.02-2.63.03Z"/>
  <path class="cls-1" d="M181.42,10.08c-.95-.57-1.91-1.13-2.86-1.7,3.58-.86,6.73.24,8.02,4.25.27.86-.13,1.55-.33,2.29-.66,2.48-1.37,4.95-2.08,7.43-.08.28-.04.68-.5.71-.01-2.01-.02-4.03-.03-6.04.49-.7.52-1.56.77-2.34.75-2.31-.51-4.22-2.98-4.6Z"/>
  <path class="cls-1" d="M198.28,9.85c-.02-.56-.05-1.12-.07-1.67,1.31,0,2.63.02,3.94-.03.9-.04,1.01.41.81,1.11-.94,3.23-1.88,6.45-2.82,9.68-.25.87-.46,1.75-.69,2.63-.97.25-1.35-.11-1.23-1.11.08-.66.04-1.33.05-1.99.62-2.06,1.22-4.13,1.85-6.18.76-2.47.77-2.47-1.85-2.42Z"/>
  <path class="cls-1" d="M34.36,38.19c-.02.15-.04.31-.06.46-.94.37-.73,1.32-.88,1.99-.26,1.15-.81,1.52-1.93,1.38-.74-.09-1.49-.03-2.24-.04.02-.56.05-1.12.07-1.67.36,0,.72-.02,1.08.02.82.1,1.29-.12,1.47-1.05.25-1.28.65-2.53,1.06-3.77.18-.55.07-.72-.49-.71-1.04.02-2.08.01-3.11.02-.02-.56-.05-1.12-.07-1.67,1.83,0,3.66,0,5.49-.02.56,0,.8.09.58.74-.39,1.2-.7,2.43-1.04,3.64-.07.25-.33.51.08.7Z"/>
  <path class="cls-1" d="M114.04,34.81c-.02-.56-.05-1.12-.07-1.67,1.67,0,3.34.02,5-.03.97-.03,1.11.26.86,1.19-.3,1.13-.86,2.22-.78,3.44.02.07.01.13-.03.19-.76.89-.81,2.06-1.1,3.1-.23.83-.58,1.01-1.32.98-.88-.04-1.76-.02-2.64-.03.02-.56.05-1.12.07-1.67.52,0,1.03,0,1.55,0,.4,0,.68-.13.79-.56.39-1.45.79-2.89,1.22-4.33.18-.6-.11-.65-.58-.64-.99.02-1.99.01-2.98.02Z"/>
  <path class="cls-1" d="M76.06,42.04c.56-.14.77.06.75.65-.04,1.22-.03,2.43-.05,3.65-.71,2.42-1.39,4.85-2.15,7.26-.18.57-.03,1.43-.96,1.59.02-1.76.04-3.52.07-5.28l2.35-7.86Z"/>
  <path class="cls-1" d="M132.52,23.29c-.02-.56-.05-1.12-.07-1.67h3.22c-.11,1.54-.79,2.9-1.09,4.35-.24,1.16-.65,2.28-.96,3.43-.17.62-.46,1-1.17.82.02-1.36.04-2.72.07-4.08.23-.7.44-1.41.68-2.11.24-.69-.09-.83-.68-.74Z"/>
  <path class="cls-1" d="M198.31,53.78c-.03-2.4-.06-4.8-.1-7.2q2.41-.06,1.76,2.3c-.36,1.33-.68,2.67-1.08,3.98-.1.32-.03.85-.58.92Z"/>
  <path class="cls-1" d="M29.35,53.78c-.03-2.4-.06-4.8-.1-7.2,2.5-.06,2.48-.07,1.76,2.3-.45,1.46-.85,2.94-1.25,4.42-.07.25-.13.45-.42.48Z"/>
  <path class="cls-1" d="M114.07,53.54c-.03-2.32-.06-4.64-.1-6.96h2.34c-.66,2.34-1.29,4.58-1.94,6.82-.02.07-.2.1-.31.15Z"/>
  <path class="cls-1" d="M106.06,42.04l1.72.03c.02,1.09-.48,2.05-.72,3.08-.11.46-.35.89-.25,1.38-.65,0-1.3,0-1.95,0,.28-1.53.72-3.01,1.2-4.49Z"/>
  <path class="cls-1" d="M21.35,42.04c.65,0,1.3,0,1.95,0-.4,1.5-.8,2.99-1.2,4.49-.65,0-1.3,0-1.95,0,.4-1.49.8-2.99,1.2-4.48Z"/>
  <path class="cls-1" d="M192.23,42.04c.57,0,1.14.02,1.71.03.02,1.09-.48,2.05-.72,3.08-.11.46-.35.89-.25,1.38-.65,0-1.3,0-1.95,0,.4-1.5.8-2.99,1.2-4.49Z"/>
  <path class="cls-1" d="M154.39,27.86c-.03-2.08-.06-4.16-.1-6.24q2.22-.06,1.65,2c-.32,1.14-.63,2.29-1,3.42-.1.29-.03.78-.55.82Z"/>
  <path class="cls-1" d="M11.49,32.62c.01-.4.07-.8.02-1.19-.13-.99.19-1.43,1.22-1.15-.17.66-.35,1.33-.51,2-.1.44-.44.34-.74.35Z"/>
  <path class="cls-1" d="M159.86,34.87c-.48.87-1.48.98-2.22,1.48-1.64,1.09-2.38,2.61-2.87,4.46-1.23,4.67-2.62,9.31-3.96,13.95-.08.28-.04.68-.5.71-.01-1.93-.02-3.87-.03-5.8.24-.15.22-.41.28-.63.94-3.34,1.89-6.68,2.81-10.03.25-.9.61-1.7,1.34-2.32.69-.58,1.33-1.23,2-1.84,1.05,0,2.1.02,3.16.03Z"/>
  <path class="cls-1" d="M164.61,40.1c1.27,0,2.54,0,3.82-.02.64-.01.83.16.62.85-.6,1.96-1.18,3.93-1.64,5.92-.26,1.15-.83,1.59-1.96,1.4-.27-.05-.56-.02-.83-.02.02-.56.05-1.12.07-1.67.54.08.9-.04,1.04-.67.15-.73.42-1.44.6-2.17.49-1.97.48-1.97-1.64-1.94-.02-.56-.05-1.12-.07-1.67Z"/>
  <path class="cls-1" d="M161.29,46.52c-.65,0-1.3,0-1.95,0,.34-1.59,1.06-3.08,1.2-4.72h1.95c-.18,1.63-.9,3.13-1.2,4.72Z"/>
  <path class="cls-1" d="M162.25,48.28c-.48,1.74-.96,3.47-1.44,5.21-.65.13-1.05.06-.99-.8.08-1.15.07-2.32,0-3.47-.05-.79.21-1.08,1-.98.47.06.96.03,1.43.05Z"/>
  <path class="cls-1" d="M3.4,27.82c.94-2.3,1.37-4.76,2.1-7.12.74-2.37,1.31-4.79,2.04-7.17.51-1.68,1.95-2.63,3.24-3.66.97.01,1.95.02,2.92.03-.73,1.04-2.01,1.31-2.93,2.14-.74.67-1.25,1.34-1.52,2.3-1.53,5.37-3.1,10.73-4.65,16.1-.04.15-.02.32-.03.48-.97.25-1.35-.11-1.23-1.11.08-.65.04-1.32.05-1.99Z"/>
  <path class="cls-1" d="M17.73,15.14c1.52,0,3.04.03,4.56-.04.87-.04.99.26.76,1.02-.67,2.2-1.31,4.41-1.91,6.63-.13.49-.39.53-.77.53-.88,0-1.76-.01-2.64-.02.02-.64.05-1.28.07-1.91.68-.18,1.65.54,1.98-.66.31-1.1.6-2.21.94-3.3.14-.46,0-.58-.42-.58-.84,0-1.67,0-2.51,0-.02-.56-.05-1.12-.07-1.67Z"/>
  <path class="cls-1" d="M16.33,23.32c-.48,1.73-.96,3.47-1.44,5.2q-1.93.1-1.93-1.76c0-.08,0-.16,0-.24.09-1.06-.48-2.51.24-3.07.67-.52,2.06-.13,3.13-.13Z"/>
  <path class="cls-1" d="M13.43,21.32c.4-1.49.8-2.99,1.2-4.48,1.02-.27,1.36.16,1.22,1.15-.05.35-.01.71,0,1.07.05,2.81-.17,2.31-2.41,2.26Z"/>
  <path class="cls-1" d="M168.98,9.91c-.15.62-.76.65-1.2.87-2.04,1.01-3.57,2.33-4.1,4.74-.56,2.59-1.43,5.11-2.15,7.66-.08.27-.05.57-.43.6-.01-1.93-.02-3.87-.03-5.8.38-1.19.87-2.36,1.1-3.58.26-1.33,1-2.28,1.91-3.19.28-.28.88-.33.77-.93l-.02.02c.21.07.39.02.5-.18,1.18-.55,2.42-.22,3.64-.21Z"/>
  <path class="cls-1" d="M175.41,15.38c.4,0,.8-.02,1.19-.02,1.55,0,1.51-.01,1.08,1.56-.29,1.06-.78,2.08-.79,3.21q-1.45.07-1.45-1.4c0-1.12-.02-2.23-.03-3.35Z"/>
  <path class="cls-1" d="M171.37,17.08c-.4,1.49-.8,2.99-1.2,4.48-.65.13-1.09.06-.99-.8.07-.55.01-1.12.01-1.68q0-2.12,2.17-2.01Z"/>
  <path class="cls-1" d="M180.47,28.52c.43-1.02.31-2.24,1.15-3.1.02.66,0,1.33.08,1.99.13,1-.25,1.37-1.22,1.12Z"/>
  <path class="cls-1" d="M98.18,9.91c-.02.42-.39.5-.66.61-2.77,1.12-4.27,3.19-4.9,6.1-.55,2.55-1.38,5.04-2.11,7.55-.45,1.53,0,2.78,1.38,3.66.29.18.72.2.76.66-2.03-.47-3.65-1.42-4.3-3.55.71-2.42,1.36-4.86,2.15-7.25.59-1.79.76-3.71,1.82-5.36.7-1.08,1.9-1.53,2.69-2.45,1.05.01,2.1.02,3.16.03Z"/>
  <path class="cls-1" d="M102.45,15.38c1.27,0,2.55.02,3.82-.03.9-.04,1.07.2.8,1.09-1.02,3.36-1.96,6.75-2.92,10.13-.18.64-.31,1.3-.46,1.95-1,.26-1.28-.13-1.24-1.14.09-1.93.05-3.87.06-5.8.85.14,1.35-.14,1.43-1.07.03-.38.24-.74.35-1.12q.71-2.39-1.78-2.35c-.02-.56-.05-1.12-.07-1.67Z"/>
  <path class="cls-1" d="M98.63,17.08c.46-.01.93,0,1.39-.04.62-.04.58.33.51.74-.38,1.26-.77,2.52-1.15,3.78-.65,0-1.3,0-1.95,0,.42-1.49.97-2.95,1.2-4.48Z"/>
  <path class="cls-1" d="M130.58,34.87c-.27.8-1.11.67-1.67.98-2.28,1.26-3.49,3.18-4.04,5.7-.55,2.51-1.24,5.01-2.08,7.44-.44,1.27-.24,2.21.53,3.17.15.19.32.36.28.63-1.78-.68-2.87-2.05-2.85-3.61.71-2.43,1.51-4.83,2.11-7.28.71-2.91,1.78-5.52,4.56-7.06,1.05,0,2.1.02,3.16.03Z"/>
  <path class="cls-1" d="M135.09,40.34c1.16,0,2.32,0,3.48-.03.77-.02,1,.23.75,1-.4,1.24-.71,2.51-1.07,3.77-.65,0-1.3,0-1.95,0,.1-.42.2-.84.31-1.26q.47-1.84-1.46-1.81c-.02-.56-.05-1.12-.07-1.67Z"/>
  <path class="cls-1" d="M131.54,46.52c-.57-.01-1.14-.02-1.72-.03.2-1.54.7-3,1.2-4.46.57,0,1.14,0,1.71,0-.25,1.53-.68,3.02-1.2,4.49Z"/>
  <path class="cls-1" d="M71.78,34.87c-.41,2.46-1.27,4.8-1.94,7.2-1,3.58-2.06,7.14-3.08,10.7-.06.22-.02.47-.03.71-.62.11-1.05.09-.99-.77.08-1.17.04-2.35.05-3.53.51-.9.63-1.93.92-2.9,1.13-3.81,2.23-7.63,3.35-11.44.57,0,1.14.02,1.72.03Z"/>
  <path class="cls-1" d="M78.69,40.34c1.19,0,2.39.03,3.58-.03,1.02-.05,1.1.32.82,1.21-.77,2.44-1.41,4.93-2.18,7.38-.5,1.58-.05,2.78,1.18,3.77.21.17.53.24.48.61-1.86-.58-3.32-1.58-3.81-3.61.84-2.49,1.56-5.02,2.25-7.65h-2.25c-.02-.56-.05-1.12-.07-1.67Z"/>
  <path class="cls-1" d="M33.6,26.42c-.13-2.29.92-4.32,1.45-6.47.5-2,1.15-3.96,1.67-5.95.51-2,2.11-2.99,3.59-4.12,1.05.01,2.11.02,3.16.03-.52.67-1.35.87-2.03,1.28-1.51.92-2.66,2.02-3.13,3.83-.76,2.94-1.63,5.86-2.53,8.76-.51,1.65-.17,2.94,1.21,3.98.26.2.7.27.72.73-1.74.05-3.01-.83-4.1-2.07Z"/>
  <path class="cls-1" d="M47.01,15.38h5.51c-1.28,4.44-2.53,8.79-3.78,13.14-1.7.08-1.7.08-1.7-1.61,0-1.78.02-3.55.04-5.33,1.91.02,1.72.17,2.16-1.68.08-.34.24-.67.34-1.01q.55-1.86-1.44-1.86c-.36,0-.71,0-1.07.01-.02-.56-.05-1.12-.07-1.67Z"/>
  <path class="cls-1" d="M42.71,21.56c.4-1.49.8-2.99,1.2-4.48,1.02-.27,1.36.16,1.22,1.15-.05.35-.02.71,0,1.07.07,2.69-.56,2.39-2.41,2.27Z"/>
  <path class="cls-1" d="M185.29,34.84c-.43,1.48-.82,2.97-1.31,4.43-.28.82-.07,1.06.77,1.07,1.69.02,1.7.05,1.26,1.73-.48,1.83-.91,3.68-1.52,5.47-.54,1.6-.95,3.15-.18,4.78-1.44-.62-2.01-1.74-1.93-3.27.02-.43.03-.87.04-1.31.42-1.42.85-2.85,1.27-4.27q.44-1.48-1.15-1.46s-.08,0-.12,0c-.31-.54.49-1.41-.53-1.73l1.44-5.44h1.95Z"/>
  <path class="cls-1" d="M21.14,34.87c-.13.63-.76.48-1.14.71-2.06,1.21-3.8,2.56-4.32,5.18-.51,2.59-1.43,5.1-2.2,7.64-.37,1.23-.48,2.45-.04,3.68-1.14-.34-1.51-1.29-1.66-2.3-.11-.74,0-1.51.01-2.27.64-1.48.99-3.06,1.4-4.61.83-3.15,1.54-6.35,4.79-8.05l3.16.03Z"/>
  <path class="cls-1" d="M105.62,34.87c-.02.42-.39.5-.66.61-2.78,1.12-4.27,3.19-4.89,6.1-.54,2.51-1.29,4.99-2.09,7.44-.38,1.15-.27,2.08.46,3,.11.14.14.36.21.54-1.69-.67-2.48-2.1-2.37-4.33.71-2.42,1.4-4.85,2.14-7.26.44-1.43.6-2.99,1.73-4.11.73-.72,1.54-1.34,2.31-2.01,1.05.01,2.1.02,3.16.03Z"/>
  <path class="cls-1" d="M73.41,15.38c1.28,0,2.55,0,3.83-.03.61-.02.7.15.57.76-.4,1.88-.36,1.89-2.25,1.89-.72,0-1.44-.01-2.15-.02,0-.87,0-1.73,0-2.6Z"/>
  <path class="cls-1" d="M64.79,15.32c.25-1.87,1.1-3.59,1.44-5.44.65,0,1.3,0,1.95,0-.44,1.83-1.15,3.58-1.44,5.44-.65,0-1.3,0-1.95,0Z"/>
  <path class="cls-1" d="M70.1,18.07c-.11,1.36-.67,2.6-.99,3.9-.11.42-.3.82-.22,1.28-.65,0-1.3,0-1.95,0,.28-1.79.89-3.49,1.44-5.21.57,0,1.14.02,1.72.03Z"/>
  <path class="cls-1" d="M73.17,23.3c2.53-.06,2.54-.06,1.92,2.3-.26.99-.61,1.95-.91,2.92-.8.2-1.02-.12-1-.91.05-1.43,0-2.87-.01-4.31Z"/>
  <path class="cls-1" d="M45.86,34.87c0,.36-.31.46-.55.55-2.86,1.11-4.5,3.13-5.1,6.2-.46,2.4-1.35,4.72-2.01,7.09-.32,1.12-.57,2.26.36,3.27.11.12.06.38.09.58-1.71-.68-2.47-1.99-2.37-4.09.81-2.02,1.19-4.17,1.89-6.21.71-2.06.7-4.45,2.68-5.94.63-.47,1.24-.98,1.85-1.47,1.05,0,2.1.02,3.16.03Z"/>
  <path class="cls-1" d="M38.65,52.55c.35,0,.72-.04.72.48-.38.05-.61-.12-.72-.48Z"/>
  <path class="cls-1" d="M144.73,9.88c-.3,2.04-1.05,3.97-1.59,5.95-.82,3.06-1.7,6.1-2.65,9.12-.27.87.53,1.4.39,2.16-1.02-.64-1.49-1.57-1.45-2.77.03-.92.03-1.84.04-2.76.28-.35.33-.78.45-1.19,1.03-3.51,2.06-7.01,3.1-10.51.57,0,1.14,0,1.71,0Z"/>
  <path class="cls-1" d="M194.89,9.88c-1.21,4.29-2.41,8.58-3.65,12.86-.11.37-.03.92-.62,1.04-.01-1.93-.02-3.87-.03-5.8.96-2.65,1.66-5.37,2.35-8.1.65,0,1.3,0,1.95,0Z"/>
  <path class="cls-1" d="M117.84,25.46c1.28-4.51,2.57-9.01,3.84-13.52.19-.68.59-1.31.47-2.06q1.46-.07,1.45,1.33c0,.35-.02.7-.04,1.05-1.24,4.25-2.47,8.51-3.71,12.76-.26.9.3,1.52.79,2.13.39.48.86.9,1.29,1.34-1.86-.34-3.34-1.21-4.1-3.04Z"/>
  <path class="cls-2" d="M50.61,48.22c-2.43,0-4.86-.01-7.29.03-.69.01-.86-.2-.85-.87.04-2.07.04-4.15,0-6.22-.01-.66.16-.88.85-.87,2.43.05,4.86.03,7.29.03.02.56.05,1.12.07,1.67,0,1.51,0,3.02,0,4.53-.02.56-.05,1.12-.07,1.67ZM46.3,42.04q-2.14-.1-2.14,2.01c0,.56.06,1.12-.01,1.67-.11.83.3.95.96.8.65,0,1.3,0,1.95,0q1.67.08,1.67-1.53c0-.8-.03-1.6,0-2.39.03-.59-.22-.69-.71-.54-.57,0-1.14-.02-1.72-.03Z"/>
  <path class="cls-1" d="M50.61,48.22c.02-.56.05-1.12.07-1.67.41.04.62-.08.71-.55.13-.73.39-1.43.61-2.14q.57-1.88-1.31-1.84c-.02-.56-.05-1.12-.07-1.67,1.19,0,2.38,0,3.57-.02.55-.01.78.07.58.73-.64,2.11-1.21,4.24-1.79,6.36-.17.63-.49.93-1.17.83-.39-.06-.79-.02-1.19-.03Z"/>
  <path class="cls-1" d="M47.05,46.52c-.65,0-1.3,0-1.95,0,.2-1.55.78-3,1.2-4.49.57,0,1.14.02,1.72.03.02.52-.12,1-.25,1.5-.25.98-.74,1.91-.72,2.95Z"/>
</svg>