<?xml version="1.0" encoding="UTF-8"?>
<svg id="Layer_1" data-name="Layer 1" xmlns="http://www.w3.org/2000/svg" viewBox="0 0 202.85 58.48">
  <defs>
    <style>
      .cls-1 {
        fill: #aaa;
      }

      .cls-1, .cls-2 {
        stroke-width: 0px;
      }

      .cls-2 {
        fill: #606161;
      }

      .cls-3 {
        opacity: .88;
      }
    </style>
  </defs>
  <g id="parallel_concept" data-name="parallel concept" class="cls-3">
    <path class="cls-2" d="M14.53,21.2h4.67l1.61-5.55h-5.35l-4.5,15.73H2.06L7.32,12.88c.14-.52.51-1.07,1.1-1.67.59-.59,1.28-1.14,2.06-1.65.78-.51,1.57-.93,2.38-1.28.81-.35,1.48-.52,2.01-.52h10.99c.59,0,1.19.17,1.8.52s1.15.77,1.61,1.28c.47.51.83,1.05,1.08,1.65.25.59.31,1.15.17,1.67l-3.18,11.1c-.17.57-.54,1.15-1.12,1.76s-1.24,1.15-1.99,1.65-1.53.9-2.35,1.22c-.82.32-1.54.48-2.16.48h-7.42l2.25-7.88ZM21.91,14.87l-2.04,7.1h-4.67l-1.82,6.33h6.53c.54,0,1.15-.14,1.85-.41s1.36-.62,2.02-1.04,1.22-.88,1.72-1.39c.5-.51.81-1,.95-1.5l3.18-11.1c.11-.44.06-.92-.15-1.42-.21-.51-.52-.97-.91-1.41-.4-.43-.86-.79-1.4-1.07-.54-.28-1.06-.43-1.57-.43h-10.99c-.48,0-1.06.14-1.74.43s-1.35.64-2.02,1.07c-.66.43-1.25.9-1.76,1.41-.51.51-.82.98-.93,1.42L3.12,30.6h7.21l4.5-15.73h7.08Z"/>
    <path class="cls-2" d="M45.69,29.08l3.82-13.36h-5.34l-1.57,5.55h4.67l-2.25,7.81h-7.47c-.62,0-1.24-.16-1.87-.48-.62-.32-1.17-.73-1.63-1.22-.47-.49-.82-1.04-1.06-1.63-.24-.59-.28-1.17-.11-1.74l3.14-10.99c.14-.52.51-1.07,1.1-1.67.59-.59,1.28-1.15,2.06-1.67.78-.52,1.57-.94,2.38-1.28.81-.33,1.48-.5,2.01-.5h10.99c.59,0,1.19.17,1.8.5s1.15.76,1.61,1.28c.47.52.83,1.07,1.08,1.67.25.59.31,1.15.17,1.67l-4.58,16.06h-8.95ZM50.61,14.98l-3.82,13.32h7.17l4.37-15.28c.11-.44.06-.92-.15-1.42-.21-.51-.52-.97-.91-1.41s-.86-.79-1.4-1.07-1.06-.43-1.57-.43h-10.99c-.48,0-1.06.14-1.74.43s-1.35.64-2.01,1.07-1.25.9-1.76,1.41c-.51.51-.82.98-.93,1.42l-3.14,10.99c-.14.49-.11.99.11,1.5.21.51.52.96.91,1.37s.86.75,1.4,1.02c.54.27,1.07.41,1.61.41h6.62l1.82-6.29h-4.67l1.99-7.03h7.08Z"/>
    <path class="cls-2" d="M65.29,7.92h14.25c.71,0,1.37.17,1.99.5.62.33,1.15.76,1.57,1.28s.73,1.07.91,1.67c.18.59.2,1.15.06,1.67l-1.06,3.77c-.14.52-.42,1.1-.83,1.76s-.84,1.21-1.29,1.68l.04.04c.14.27.28.58.42.93.14.35.14.73,0,1.15l-1.91,6.73h-8.82l1.53-5.33h-7l2.25-7.84h7.04l.04-.19h-11.45l2.25-7.81ZM65.93,8.69l-1.78,6.29h11.41l-.47,1.7h-7.04l-1.82,6.29h7l-1.53,5.33h7.13l1.7-5.96c.08-.27.07-.56-.04-.87-.11-.31-.24-.57-.38-.8-.14-.22-.21-.41-.21-.56l.04-.07c.48-.35.93-.84,1.36-1.5s.72-1.24.89-1.76l1.06-3.77c.11-.44.09-.92-.06-1.42-.16-.51-.42-.97-.78-1.41s-.82-.79-1.36-1.07c-.54-.28-1.12-.43-1.74-.43h-13.36Z"/>
    <path class="cls-2" d="M99.42,29.08l3.82-13.36h-5.34l-1.57,5.55h4.67l-2.25,7.81h-7.47c-.62,0-1.24-.16-1.87-.48-.62-.32-1.17-.73-1.63-1.22-.47-.49-.82-1.04-1.06-1.63-.24-.59-.28-1.17-.11-1.74l3.14-10.99c.14-.52.51-1.07,1.1-1.67.59-.59,1.28-1.15,2.06-1.67.78-.52,1.57-.94,2.38-1.28.81-.33,1.48-.5,2.01-.5h10.99c.59,0,1.19.17,1.8.5s1.15.76,1.61,1.28c.47.52.83,1.07,1.08,1.67.25.59.31,1.15.17,1.67l-4.58,16.06h-8.95ZM104.34,14.98l-3.82,13.32h7.17l4.37-15.28c.11-.44.06-.92-.15-1.42-.21-.51-.52-.97-.91-1.41s-.86-.79-1.4-1.07c-.54-.28-1.06-.43-1.57-.43h-10.99c-.48,0-1.06.14-1.74.43s-1.35.64-2.01,1.07-1.25.9-1.76,1.41c-.51.51-.82.98-.93,1.42l-3.14,10.99c-.14.49-.11.99.11,1.5.21.51.52.96.91,1.37s.86.75,1.4,1.02c.54.27,1.07.41,1.61.41h6.62l1.82-6.29h-4.67l1.99-7.03h7.08Z"/>
    <path class="cls-2" d="M125.02,21.39h7.17l-2.21,7.7h-9.88c-.59,0-1.2-.16-1.8-.48-.61-.32-1.14-.73-1.59-1.22-.45-.49-.79-1.04-1.02-1.63-.23-.59-.25-1.17-.08-1.74l4.62-16.1h8.65l-3.86,13.47ZM127.77,8.69h-6.96l-4.37,15.32c-.14.49-.12.99.06,1.5.18.51.47.96.85,1.37s.83.75,1.36,1.02,1.05.41,1.59.41h9.04l1.78-6.18h-7.17l3.82-13.43Z"/>
    <path class="cls-2" d="M145.13,21.39h7.17l-2.21,7.7h-9.88c-.59,0-1.2-.16-1.8-.48-.61-.32-1.14-.73-1.59-1.22-.45-.49-.79-1.04-1.02-1.63-.23-.59-.25-1.17-.08-1.74l4.62-16.1h8.65l-3.86,13.47ZM147.88,8.69h-6.96l-4.37,15.32c-.14.49-.12.99.06,1.5.18.51.47.96.85,1.37s.83.75,1.36,1.02,1.05.41,1.59.41h9.04l1.78-6.18h-7.17l3.82-13.43Z"/>
    <path class="cls-2" d="M170.92,20.68l1.4-4.96h-5.34l-1.57,5.55h14.3l-2.25,7.81h-17.09c-.62,0-1.24-.16-1.87-.48s-1.17-.73-1.63-1.22c-.47-.49-.82-1.04-1.06-1.63-.24-.59-.28-1.17-.11-1.74l3.14-10.99c.14-.52.51-1.07,1.1-1.67.59-.59,1.28-1.15,2.06-1.67.78-.52,1.57-.94,2.38-1.28s1.48-.5,2.01-.5h10.99c.59,0,1.2.17,1.8.5.61.33,1.14.76,1.61,1.28s.83,1.07,1.08,1.67c.25.59.31,1.15.17,1.67l-2.16,7.66h-8.95ZM156.64,25.51c.21.51.52.96.91,1.37.4.41.86.75,1.4,1.02.54.27,1.07.41,1.61.41h16.2l1.82-6.29h-14.25l1.99-7.03h7.08l-1.4,4.92h7.17l1.95-6.88c.11-.44.06-.92-.15-1.42-.21-.51-.52-.97-.91-1.41-.4-.43-.86-.79-1.4-1.07s-1.06-.43-1.57-.43h-10.99c-.48,0-1.06.14-1.74.43s-1.35.64-2.02,1.07c-.66.43-1.25.9-1.76,1.41-.51.51-.82.98-.93,1.42l-3.14,10.99c-.14.49-.11.99.11,1.5Z"/>
    <path class="cls-2" d="M194.1,21.39h7.17l-2.21,7.7h-9.88c-.59,0-1.2-.16-1.8-.48-.61-.32-1.14-.73-1.59-1.22-.45-.49-.79-1.04-1.02-1.63-.23-.59-.25-1.17-.08-1.74l4.62-16.1h8.65l-3.86,13.47ZM196.85,8.69h-6.96l-4.37,15.32c-.14.49-.12.99.06,1.5.18.51.47.96.85,1.37s.83.75,1.36,1.02,1.05.41,1.59.41h9.04l1.78-6.18h-7.17l3.82-13.43Z"/>
    <path class="cls-2" d="M31.31,40.72h-9.67l-1.57,5.55h9.67l-2.25,7.81h-12.43c-.62,0-1.24-.16-1.85-.48-.61-.32-1.15-.73-1.61-1.22s-.81-1.04-1.04-1.63c-.23-.59-.25-1.17-.08-1.74l3.14-10.99c.14-.52.51-1.07,1.1-1.67.59-.59,1.27-1.15,2.04-1.67.76-.52,1.54-.94,2.33-1.28.79-.33,1.46-.5,1.99-.5h12.47l-2.25,7.81ZM21.01,39.98h9.67l1.78-6.29h-11.62c-.48,0-1.06.14-1.74.42-.68.28-1.34.64-1.99,1.07s-1.22.9-1.72,1.41c-.5.51-.8.98-.91,1.42l-3.14,10.99c-.14.49-.11.99.08,1.5.2.51.5.96.89,1.37.4.41.86.75,1.38,1.02.52.27,1.05.41,1.59.41h11.58l1.82-6.29h-9.67l1.99-7.03Z"/>
    <path class="cls-2" d="M56.43,32.92c.59,0,1.19.17,1.8.5s1.15.76,1.61,1.28c.47.52.83,1.07,1.08,1.67.25.59.31,1.15.17,1.67l-3.14,10.99c-.17.57-.54,1.15-1.12,1.74s-1.24,1.13-1.99,1.63-1.53.9-2.35,1.22c-.82.32-1.54.48-2.16.48h-10.94c-.62,0-1.24-.16-1.87-.48-.62-.32-1.17-.73-1.63-1.22-.47-.49-.82-1.04-1.06-1.63s-.28-1.17-.11-1.74l3.14-10.99c.14-.52.51-1.07,1.1-1.67.59-.59,1.28-1.15,2.06-1.67.78-.52,1.57-.94,2.38-1.28.81-.33,1.48-.5,2.01-.5h11.03ZM45.15,33.69c-.48,0-1.06.14-1.74.42-.68.28-1.35.64-2.01,1.07s-1.25.9-1.76,1.41c-.51.51-.82.98-.93,1.42l-3.14,10.99c-.14.49-.11.99.11,1.5.21.51.52.96.91,1.37s.86.75,1.4,1.02c.54.27,1.07.41,1.61.41h10.94c.54,0,1.15-.14,1.85-.41s1.36-.61,2.02-1.02,1.22-.86,1.72-1.37c.5-.51.81-1.01.95-1.5l3.14-10.99c.11-.44.06-.92-.15-1.42-.21-.51-.52-.97-.91-1.41s-.86-.79-1.4-1.07c-.54-.28-1.06-.42-1.57-.42h-11.03ZM43.32,47.05l2.04-7.1h7.13l-2.04,7.1h-7.13ZM44.38,46.31h5.39l1.61-5.62h-5.39l-1.61,5.62Z"/>
    <path class="cls-2" d="M79.84,53.6c-.62-.32-1.18-.73-1.68-1.24-.49-.5-.86-1.05-1.1-1.65-.24-.59-.28-1.17-.11-1.74l2.38-8.25h-4.16l-3.82,13.36h-8.95l6.07-21.17h15.91c.62,0,1.24.16,1.87.48.62.32,1.17.73,1.63,1.22.47.49.82,1.04,1.06,1.65.24.6.28,1.18.11,1.72l-2.38,8.4h2.63l-2.21,7.7h-5.43c-.59,0-1.2-.16-1.82-.48ZM80.39,39.98l-2.59,8.99c-.14.49-.11.99.11,1.5.21.51.52.97.93,1.39.41.42.88.76,1.42,1.04.54.27,1.07.41,1.61.41h4.54l1.78-6.14h-2.63l2.59-9.18c.14-.47.11-.96-.08-1.48-.2-.52-.5-.98-.91-1.39-.41-.41-.88-.75-1.42-1.02-.54-.27-1.07-.41-1.61-.41h-15.02l-5.6,19.61h7.21l3.82-13.32h5.85Z"/>
    <path class="cls-2" d="M114.31,40.72h-9.67l-1.57,5.55h9.67l-2.25,7.81h-12.43c-.62,0-1.24-.16-1.85-.48-.61-.32-1.15-.73-1.61-1.22s-.81-1.04-1.04-1.63c-.23-.59-.25-1.17-.08-1.74l3.14-10.99c.14-.52.51-1.07,1.1-1.67.59-.59,1.27-1.15,2.04-1.67.76-.52,1.54-.94,2.33-1.28s1.46-.5,1.99-.5h12.47l-2.25,7.81ZM104,39.98h9.67l1.78-6.29h-11.62c-.48,0-1.06.14-1.74.42-.68.28-1.34.64-1.99,1.07s-1.22.9-1.72,1.41c-.5.51-.8.98-.91,1.42l-3.14,10.99c-.14.49-.11.99.08,1.5.2.51.5.96.89,1.37.4.41.86.75,1.38,1.02.52.27,1.05.41,1.59.41h11.58l1.82-6.29h-9.67l1.99-7.03Z"/>
    <path class="cls-2" d="M132.94,45.68l1.4-4.96h-5.34l-1.57,5.55h14.29l-2.25,7.81h-17.09c-.62,0-1.24-.16-1.87-.48-.62-.32-1.17-.73-1.63-1.22-.47-.49-.82-1.04-1.06-1.63-.24-.59-.28-1.17-.11-1.74l3.14-10.99c.14-.52.51-1.07,1.1-1.67.59-.59,1.28-1.15,2.06-1.67.78-.52,1.57-.94,2.38-1.28s1.48-.5,2.01-.5h10.99c.59,0,1.2.17,1.8.5.61.33,1.14.76,1.61,1.28.47.52.83,1.07,1.08,1.67.25.59.31,1.15.17,1.67l-2.16,7.66h-8.95ZM118.66,50.51c.21.51.52.96.91,1.37.4.41.86.75,1.4,1.02.54.27,1.07.41,1.61.41h16.2l1.82-6.29h-14.25l1.99-7.03h7.08l-1.4,4.92h7.17l1.95-6.88c.11-.44.06-.92-.15-1.42-.21-.51-.52-.97-.91-1.41-.4-.43-.86-.79-1.4-1.07-.54-.28-1.06-.42-1.57-.42h-10.99c-.48,0-1.06.14-1.74.42-.68.28-1.35.64-2.02,1.07-.66.43-1.25.9-1.76,1.41-.51.51-.82.98-.93,1.42l-3.14,10.99c-.14.49-.11.99.11,1.5Z"/>
    <path class="cls-2" d="M157.2,46.2h4.67l1.61-5.55h-5.34l-4.5,15.73h-8.91l5.26-18.5c.14-.52.51-1.07,1.1-1.67s1.28-1.14,2.06-1.65c.78-.51,1.57-.93,2.38-1.28.81-.35,1.48-.52,2.02-.52h10.99c.59,0,1.19.17,1.8.52.61.34,1.15.77,1.61,1.28.47.51.83,1.05,1.08,1.65.25.59.31,1.15.17,1.67l-3.18,11.1c-.17.57-.54,1.15-1.12,1.76s-1.24,1.15-1.99,1.65c-.75.49-1.53.9-2.35,1.22-.82.32-1.54.48-2.16.48h-7.42l2.25-7.88ZM164.58,39.87l-2.04,7.1h-4.67l-1.82,6.33h6.53c.54,0,1.15-.14,1.84-.41.69-.27,1.36-.62,2.01-1.04.65-.42,1.22-.88,1.72-1.39.49-.51.81-1,.95-1.5l3.18-11.1c.11-.44.06-.92-.15-1.42-.21-.5-.52-.97-.91-1.41-.4-.43-.86-.79-1.4-1.07-.54-.28-1.06-.43-1.57-.43h-10.99c-.48,0-1.06.14-1.74.43-.68.28-1.35.64-2.01,1.07-.67.43-1.25.9-1.76,1.41-.51.51-.82.98-.93,1.42l-5.05,17.72h7.21l4.5-15.73h7.08Z"/>
    <path class="cls-2" d="M202.85,32.92l-2.25,7.81h-11.45l-1.57,5.55h7.85l-2.25,7.81h-10.6c-.62,0-1.25-.16-1.89-.48-.64-.32-1.19-.73-1.65-1.22s-.82-1.04-1.06-1.63-.28-1.17-.11-1.74l2.38-8.29h-2.84l2.25-7.81h23.2ZM188.51,39.98h11.41l1.78-6.29h-21.46l-1.78,6.29h2.84l-2.59,9.03c-.14.49-.11.99.08,1.5s.5.96.91,1.37.88.75,1.42,1.02,1.09.41,1.65.41h9.71l1.82-6.29h-7.81l1.99-7.03Z"/>
  </g>
  <g>
    <path class="cls-1" d="M10.94,21.2h4.67v-5.55h-5.34v15.73H1.36V12.88c0-.52.21-1.07.64-1.67.42-.59.95-1.14,1.57-1.65.62-.51,1.28-.93,1.97-1.28s1.32-.52,1.89-.52h10.99c.59,0,1.24.17,1.95.52s1.37.77,1.99,1.28c.62.51,1.15,1.05,1.57,1.65.42.59.64,1.15.64,1.67v11.1c0,.57-.21,1.15-.62,1.76s-.93,1.15-1.55,1.65-1.29.9-2.02,1.22c-.72.32-1.39.48-2.01.48h-7.42v-7.88ZM16.5,14.87v7.1h-4.67v6.33h6.53c.54,0,1.12-.14,1.74-.41s1.19-.62,1.72-1.04c.52-.42.96-.88,1.31-1.39.35-.51.53-1,.53-1.5v-11.1c0-.44-.18-.92-.53-1.42-.35-.51-.8-.97-1.34-1.41-.54-.43-1.11-.79-1.72-1.07-.61-.28-1.17-.43-1.68-.43H7.42c-.48,0-1.02.14-1.63.43-.61.28-1.17.64-1.7,1.07-.52.43-.97.9-1.34,1.41-.37.51-.55.98-.55,1.42v17.72h7.21v-15.73h7.08Z"/>
    <path class="cls-1" d="M44.3,29.08v-13.36h-5.34v5.55h4.67v7.81h-7.47c-.62,0-1.29-.16-1.99-.48s-1.36-.73-1.97-1.22-1.12-1.04-1.53-1.63c-.41-.59-.62-1.17-.62-1.74v-10.99c0-.52.21-1.07.64-1.67.42-.59.95-1.15,1.57-1.67.62-.52,1.28-.94,1.97-1.28s1.32-.5,1.89-.5h10.99c.59,0,1.24.17,1.95.5s1.37.76,1.99,1.28,1.15,1.07,1.57,1.67c.42.59.64,1.15.64,1.67v16.06h-8.95ZM45.19,14.98v13.32h7.17v-15.28c0-.44-.18-.92-.53-1.42-.35-.51-.8-.97-1.34-1.41-.54-.43-1.11-.79-1.72-1.07-.61-.28-1.17-.43-1.68-.43h-10.99c-.48,0-1.02.14-1.63.43-.61.28-1.17.64-1.7,1.07-.52.43-.97.9-1.34,1.41-.37.51-.55.98-.55,1.42v10.99c0,.49.18.99.53,1.5s.79.96,1.32,1.37c.52.41,1.09.75,1.7,1.02.61.27,1.18.41,1.72.41h6.62v-6.29h-4.67v-7.03h7.08Z"/>
    <path class="cls-1" d="M58.71,7.92h14.25c.71,0,1.42.17,2.14.5s1.37.76,1.95,1.28c.58.52,1.05,1.07,1.4,1.67.35.59.53,1.15.53,1.67v3.77c0,.52-.11,1.1-.34,1.76-.23.65-.49,1.21-.81,1.68l.08.04c.23.27.45.58.68.93.23.35.34.73.34,1.15v6.73h-8.82v-5.33h-7v-7.84h7.04v-.19h-11.45v-7.81ZM59.6,8.69v6.29h11.41v1.7h-7.04v6.29h7v5.33h7.13v-5.96c0-.27-.11-.56-.32-.87-.21-.31-.42-.57-.61-.8-.23-.27-.34-.46-.34-.56v-.07c.2-.17.37-.39.53-.65.16-.26.29-.54.4-.85.11-.31.21-.62.28-.92.07-.31.11-.59.11-.83v-3.77c0-.44-.16-.92-.47-1.42-.31-.51-.71-.97-1.19-1.41-.48-.43-1.03-.79-1.65-1.07-.62-.28-1.24-.43-1.87-.43h-13.36Z"/>
    <path class="cls-1" d="M98.73,29.08v-13.36h-5.34v5.55h4.67v7.81h-7.47c-.62,0-1.29-.16-1.99-.48s-1.36-.73-1.97-1.22-1.12-1.04-1.53-1.63c-.41-.59-.62-1.17-.62-1.74v-10.99c0-.52.21-1.07.64-1.67.42-.59.95-1.15,1.57-1.67.62-.52,1.28-.94,1.97-1.28s1.32-.5,1.89-.5h10.99c.59,0,1.24.17,1.95.5.71.33,1.37.76,1.99,1.28s1.15,1.07,1.57,1.67c.42.59.64,1.15.64,1.67v16.06h-8.95ZM99.62,14.98v13.32h7.17v-15.28c0-.44-.18-.92-.53-1.42-.35-.51-.8-.97-1.34-1.41-.54-.43-1.11-.79-1.72-1.07-.61-.28-1.17-.43-1.67-.43h-10.99c-.48,0-1.02.14-1.63.43-.61.28-1.17.64-1.7,1.07-.52.43-.97.9-1.34,1.41-.37.51-.55.98-.55,1.42v10.99c0,.49.18.99.53,1.5s.79.96,1.32,1.37c.52.41,1.09.75,1.7,1.02.61.27,1.18.41,1.72.41h6.62v-6.29h-4.67v-7.03h7.08Z"/>
    <path class="cls-1" d="M121.92,21.39h7.17v7.7h-9.88c-.59,0-1.24-.16-1.93-.48-.69-.32-1.34-.73-1.93-1.22s-1.09-1.04-1.48-1.63c-.4-.59-.59-1.17-.59-1.74V7.92h8.65v13.47ZM121.08,8.69h-6.96v15.32c0,.49.16.99.49,1.5s.74.96,1.25,1.37,1.06.75,1.65,1.02,1.16.41,1.7.41h9.04v-6.18h-7.17v-13.43Z"/>
    <path class="cls-1" d="M143.17,21.39h7.17v7.7h-9.88c-.59,0-1.24-.16-1.93-.48-.69-.32-1.34-.73-1.93-1.22s-1.09-1.04-1.48-1.63c-.4-.59-.59-1.17-.59-1.74V7.92h8.65v13.47ZM142.32,8.69h-6.96v15.32c0,.49.16.99.49,1.5s.74.96,1.25,1.37c.51.41,1.06.75,1.65,1.02s1.16.41,1.7.41h9.04v-6.18h-7.17v-13.43Z"/>
    <path class="cls-1" d="M170.03,20.68v-4.96h-5.34v5.55h14.29v7.81h-17.09c-.62,0-1.29-.16-1.99-.48s-1.36-.73-1.97-1.22c-.61-.49-1.12-1.04-1.53-1.63-.41-.59-.62-1.17-.62-1.74v-10.99c0-.52.21-1.07.64-1.67.42-.59.95-1.15,1.57-1.67s1.28-.94,1.97-1.28c.69-.33,1.32-.5,1.89-.5h10.99c.59,0,1.24.17,1.95.5s1.37.76,1.99,1.28c.62.52,1.14,1.07,1.57,1.67.42.59.64,1.15.64,1.67v7.66h-8.95ZM157.16,25.51c.35.51.79.96,1.31,1.37.52.41,1.09.75,1.7,1.02.61.27,1.18.41,1.72.41h16.2v-6.29h-14.25v-7.03h7.08v4.92h7.17v-6.88c0-.44-.18-.92-.53-1.42-.35-.51-.8-.97-1.34-1.41s-1.11-.79-1.72-1.07c-.61-.28-1.17-.43-1.68-.43h-10.99c-.48,0-1.03.14-1.63.43-.61.28-1.17.64-1.7,1.07-.52.43-.97.9-1.34,1.41-.37.51-.55.98-.55,1.42v10.99c0,.49.18.99.53,1.5Z"/>
    <path class="cls-1" d="M193.23,21.39h7.17v7.7h-9.88c-.59,0-1.24-.16-1.93-.48-.69-.32-1.34-.73-1.93-1.22s-1.09-1.04-1.48-1.63c-.4-.59-.59-1.17-.59-1.74V7.92h8.65v13.47ZM192.38,8.69h-6.96v15.32c0,.49.16.99.49,1.5s.74.96,1.25,1.37c.51.41,1.06.75,1.65,1.02s1.16.41,1.7.41h9.04v-6.18h-7.17v-13.43Z"/>
    <path class="cls-1" d="M27.54,40.72h-9.67v5.55h9.67v7.81h-12.43c-.62,0-1.29-.16-1.99-.48-.71-.32-1.36-.73-1.95-1.22s-1.09-1.04-1.48-1.63c-.4-.59-.59-1.17-.59-1.74v-10.99c0-.52.21-1.07.62-1.67.41-.59.93-1.15,1.55-1.67.62-.52,1.27-.94,1.95-1.28s1.3-.5,1.87-.5h12.47v7.81ZM17.02,39.98h9.67v-6.29h-11.62c-.48,0-1.02.14-1.61.42-.59.28-1.15.64-1.68,1.07-.52.43-.96.9-1.31,1.41s-.53.98-.53,1.42v10.99c0,.49.17.99.51,1.5s.76.96,1.27,1.37c.51.41,1.07.75,1.68,1.02s1.18.41,1.72.41h11.58v-6.29h-9.67v-7.03Z"/>
    <path class="cls-1" d="M50.12,32.92c.59,0,1.24.17,1.95.5s1.37.76,1.99,1.28c.62.52,1.15,1.07,1.57,1.67.42.59.64,1.15.64,1.67v10.99c0,.57-.21,1.15-.62,1.74s-.93,1.13-1.55,1.63-1.29.9-2.02,1.22c-.72.32-1.39.48-2.01.48h-10.94c-.62,0-1.29-.16-1.99-.48-.71-.32-1.36-.73-1.97-1.22s-1.12-1.04-1.53-1.63c-.41-.59-.62-1.17-.62-1.74v-10.99c0-.52.21-1.07.64-1.67.42-.59.95-1.15,1.57-1.67.62-.52,1.28-.94,1.97-1.28s1.32-.5,1.89-.5h11.03ZM39.09,33.69c-.48,0-1.02.14-1.63.42-.61.28-1.17.64-1.7,1.07-.52.43-.97.9-1.34,1.41s-.55.98-.55,1.42v10.99c0,.49.18.99.53,1.5s.79.96,1.32,1.37c.52.41,1.09.75,1.7,1.02.61.27,1.18.41,1.72.41h10.94c.54,0,1.12-.14,1.74-.41.62-.27,1.19-.61,1.72-1.02.52-.41.96-.86,1.31-1.37s.53-1.01.53-1.5v-10.99c0-.44-.18-.92-.53-1.42s-.8-.97-1.34-1.41c-.54-.43-1.11-.79-1.72-1.07-.61-.28-1.17-.42-1.68-.42h-11.03ZM41.08,47.05v-7.1h7.13v7.1h-7.13ZM41.93,46.31h5.39v-5.62h-5.39v5.62Z"/>
    <path class="cls-1" d="M79.17,53.6c-.72-.32-1.39-.73-2.02-1.24-.62-.5-1.14-1.05-1.55-1.65s-.62-1.17-.62-1.74v-8.25h-4.16v13.36h-8.95v-21.17h15.91c.62,0,1.29.16,1.99.48.71.32,1.37.73,1.99,1.22.62.49,1.14,1.04,1.55,1.65.41.6.62,1.18.62,1.72v8.4h2.63v7.7h-5.43c-.59,0-1.25-.16-1.97-.48ZM75.83,39.98v8.99c0,.49.18.99.53,1.5s.79.97,1.31,1.39c.52.42,1.1.76,1.72,1.04.62.27,1.2.41,1.74.41h4.54v-6.14h-2.63v-9.18c0-.47-.18-.96-.53-1.48-.35-.52-.79-.98-1.31-1.39-.52-.41-1.09-.75-1.7-1.02-.61-.27-1.18-.41-1.72-.41h-15.02v19.61h7.21v-13.32h5.85Z"/>
    <path class="cls-1" d="M110.47,40.72h-9.67v5.55h9.67v7.81h-12.43c-.62,0-1.29-.16-1.99-.48-.71-.32-1.36-.73-1.95-1.22s-1.09-1.04-1.48-1.63c-.4-.59-.59-1.17-.59-1.74v-10.99c0-.52.21-1.07.62-1.67.41-.59.93-1.15,1.55-1.67.62-.52,1.27-.94,1.95-1.28s1.3-.5,1.87-.5h12.47v7.81ZM99.95,39.98h9.67v-6.29h-11.62c-.48,0-1.02.14-1.61.42-.59.28-1.15.64-1.68,1.07-.52.43-.96.9-1.31,1.41s-.53.98-.53,1.42v10.99c0,.49.17.99.51,1.5s.76.96,1.27,1.37c.51.41,1.07.75,1.68,1.02s1.18.41,1.72.41h11.58v-6.29h-9.67v-7.03Z"/>
    <path class="cls-1" d="M130.2,45.68v-4.96h-5.34v5.55h14.29v7.81h-17.09c-.62,0-1.29-.16-1.99-.48-.71-.32-1.36-.73-1.97-1.22-.61-.49-1.12-1.04-1.53-1.63s-.62-1.17-.62-1.74v-10.99c0-.52.21-1.07.64-1.67.42-.59.95-1.15,1.57-1.67.62-.52,1.28-.94,1.97-1.28.69-.33,1.32-.5,1.89-.5h10.99c.59,0,1.24.17,1.95.5s1.37.76,1.99,1.28c.62.52,1.14,1.07,1.57,1.67.42.59.64,1.15.64,1.67v7.66h-8.95ZM117.33,50.51c.35.51.79.96,1.31,1.37.52.41,1.09.75,1.7,1.02.61.27,1.18.41,1.72.41h16.2v-6.29h-14.25v-7.03h7.08v4.92h7.17v-6.88c0-.44-.18-.92-.53-1.42s-.8-.97-1.34-1.41-1.11-.79-1.72-1.07c-.61-.28-1.17-.42-1.68-.42h-10.99c-.48,0-1.03.14-1.63.42-.61.28-1.17.64-1.7,1.07-.52.43-.97.9-1.34,1.41-.37.51-.55.98-.55,1.42v10.99c0,.49.18.99.53,1.5Z"/>
    <path class="cls-1" d="M154.44,46.2h4.67v-5.55h-5.34v15.73h-8.91v-18.5c0-.52.21-1.07.64-1.67.42-.59.95-1.14,1.57-1.65s1.28-.93,1.97-1.28c.69-.35,1.32-.52,1.89-.52h10.99c.59,0,1.24.17,1.95.52.71.34,1.37.77,1.99,1.28.62.51,1.14,1.05,1.57,1.65.42.59.64,1.15.64,1.67v11.1c0,.57-.21,1.15-.62,1.76-.41.6-.93,1.15-1.55,1.65s-1.29.9-2.01,1.22c-.72.32-1.39.48-2.02.48h-7.42v-7.88ZM160,39.87v7.1h-4.67v6.33h6.53c.54,0,1.12-.14,1.74-.41s1.2-.62,1.72-1.04c.52-.42.96-.88,1.31-1.39s.53-1,.53-1.5v-11.1c0-.44-.18-.92-.53-1.42-.35-.5-.8-.97-1.34-1.41-.54-.43-1.11-.79-1.72-1.07-.61-.28-1.17-.43-1.68-.43h-10.99c-.48,0-1.03.14-1.63.43-.61.28-1.17.64-1.7,1.07-.52.43-.97.9-1.34,1.41-.37.51-.55.98-.55,1.42v17.72h7.21v-15.73h7.08Z"/>
    <path class="cls-1" d="M196.74,32.92v7.81h-11.45v5.55h7.85v7.81h-10.6c-.62,0-1.29-.16-2.02-.48-.72-.32-1.38-.73-1.99-1.22s-1.12-1.04-1.53-1.63-.62-1.17-.62-1.74v-8.29h-2.84v-7.81h23.2ZM184.44,39.98h11.41v-6.29h-21.46v6.29h2.84v9.03c0,.49.17.99.51,1.5.34.51.78.96,1.32,1.37s1.11.75,1.72,1.02,1.2.41,1.76.41h9.71v-6.29h-7.81v-7.03Z"/>
  </g>
</svg>